<?xml version="1.0" encoding="UTF-8" standalone="no"?><svg xmlns="http://www.w3.org/2000/svg" xmlns:xlink="http://www.w3.org/1999/xlink" contentStyleType="text/css" height="1088px" preserveAspectRatio="none" style="width:2240px;height:1088px;background:#FFFFFF;" version="1.1" viewBox="0 0 2240 1088" width="2240px" zoomAndPan="magnify"><defs/><g><!--MD5=[e9552d3d3b30b72a5ccbf7944766e40d]
cluster Клиентское приложение (Windows)--><g id="cluster_Клиентское приложение (Windows)"><polygon fill="none" points="914,168.8459,924,158.8459,1286,158.8459,1286,357.8459,1276,367.8459,914,367.8459,914,168.8459" style="stroke:#181818;stroke-width:1.0;"/><line style="stroke:#181818;stroke-width:1.0;" x1="1276" x2="1286" y1="168.8459" y2="158.8459"/><line style="stroke:#181818;stroke-width:1.0;" x1="914" x2="1276" y1="168.8459" y2="168.8459"/><line style="stroke:#181818;stroke-width:1.0;" x1="1276" x2="1276" y1="168.8459" y2="367.8459"/><text fill="#000000" font-family="sans-serif" font-size="14" font-weight="bold" lengthAdjust="spacing" textLength="296" x="948" y="184.841">Клиентское приложение (Windows)</text></g><!--MD5=[237e667d60b6239ab9e28bd19b684d3f]
cluster Сервер приложений--><g id="cluster_Сервер приложений"><polygon fill="none" points="16,410.8459,26,400.8459,1454,400.8459,1454,1061.3459,1444,1071.3459,16,1071.3459,16,410.8459" style="stroke:#181818;stroke-width:1.0;"/><line style="stroke:#181818;stroke-width:1.0;" x1="1444" x2="1454" y1="410.8459" y2="400.8459"/><line style="stroke:#181818;stroke-width:1.0;" x1="16" x2="1444" y1="410.8459" y2="410.8459"/><line style="stroke:#181818;stroke-width:1.0;" x1="1444" x2="1444" y1="410.8459" y2="1071.3459"/><text fill="#000000" font-family="sans-serif" font-size="14" font-weight="bold" lengthAdjust="spacing" textLength="169" x="646.5" y="426.841">Сервер приложений</text></g><!--MD5=[e169ac431914a6adb8cf110c9da1459f]
cluster DB--><g id="cluster_DB"><path d="M616,826.9859 C616,816.9859 801,816.9859 801,816.9859 C801,816.9859 986,816.9859 986,826.9859 L986,1029.3459 C986,1039.3459 801,1039.3459 801,1039.3459 C801,1039.3459 616,1039.3459 616,1029.3459 L616,826.9859 " fill="none" style="stroke:#181818;stroke-width:1.0;"/><path d="M616,826.9859 C616,836.9859 801,836.9859 801,836.9859 C801,836.9859 986,836.9859 986,826.9859 " fill="none" style="stroke:#181818;stroke-width:1.0;"/><text fill="#000000" font-family="sans-serif" font-size="14" font-weight="bold" lengthAdjust="spacing" textLength="104" x="749" y="851.981">База данных</text></g><!--MD5=[c912caef5f063752952f6cbeded13479]
cluster APIServer--><g id="cluster_APIServer"><rect fill="none" height="113" rx="2.5" ry="2.5" style="stroke:#181818;stroke-width:1.0;" width="330" x="1092" y="456.8459"/><rect fill="none" height="10" style="stroke:#181818;stroke-width:1.0;" width="15" x="1402" y="461.8459"/><rect fill="none" height="2" style="stroke:#181818;stroke-width:1.0;" width="4" x="1400" y="463.8459"/><rect fill="none" height="2" style="stroke:#181818;stroke-width:1.0;" width="4" x="1400" y="467.8459"/><text fill="#000000" font-family="sans-serif" font-size="14" font-weight="bold" lengthAdjust="spacing" textLength="90" x="1212" y="482.841">API Сервер</text></g><!--MD5=[4bc8eeeccf9386de727fe25afb3a433e]
cluster BusinessLogic--><g id="cluster_BusinessLogic"><rect fill="none" height="269.5" rx="2.5" ry="2.5" style="stroke:#181818;stroke-width:1.0;" width="528" x="48" y="636.8459"/><rect fill="none" height="10" style="stroke:#181818;stroke-width:1.0;" width="15" x="556" y="641.8459"/><rect fill="none" height="2" style="stroke:#181818;stroke-width:1.0;" width="4" x="554" y="643.8459"/><rect fill="none" height="2" style="stroke:#181818;stroke-width:1.0;" width="4" x="554" y="647.8459"/><text fill="#000000" font-family="sans-serif" font-size="14" font-weight="bold" lengthAdjust="spacing" textLength="120" x="252" y="662.841">Бизнес-логика</text></g><!--MD5=[cdfd548b3455e70392372b1f27091970]
cluster Services--><g id="cluster_Services"><rect fill="none" height="242" rx="2.5" ry="2.5" style="stroke:#181818;stroke-width:1.0;" width="396" x="1026" y="793.3459"/><rect fill="none" height="10" style="stroke:#181818;stroke-width:1.0;" width="15" x="1402" y="798.3459"/><rect fill="none" height="2" style="stroke:#181818;stroke-width:1.0;" width="4" x="1400" y="800.3459"/><rect fill="none" height="2" style="stroke:#181818;stroke-width:1.0;" width="4" x="1400" y="804.3459"/><text fill="#000000" font-family="sans-serif" font-size="14" font-weight="bold" lengthAdjust="spacing" textLength="72" x="1188" y="819.341">Сервисы</text></g><!--MD5=[c92432ea3d28a013dcef14eab14af41f]
cluster Внешние системы--><g id="cluster_Внешние системы"><polygon fill="none" points="1478,649.8459,1488,639.8459,1996,639.8459,1996,731.8459,1986,741.8459,1478,741.8459,1478,649.8459" style="stroke:#181818;stroke-width:1.0;"/><line style="stroke:#181818;stroke-width:1.0;" x1="1986" x2="1996" y1="649.8459" y2="639.8459"/><line style="stroke:#181818;stroke-width:1.0;" x1="1478" x2="1986" y1="649.8459" y2="649.8459"/><line style="stroke:#181818;stroke-width:1.0;" x1="1986" x2="1986" y1="649.8459" y2="741.8459"/><text fill="#000000" font-family="sans-serif" font-size="14" font-weight="bold" lengthAdjust="spacing" textLength="150" x="1658" y="665.841">Внешние системы</text></g><!--MD5=[52d85779f9ca50ed6144f1c8dcea4341]
cluster Пользователи--><g id="cluster_Пользователи"><path d="M742.0137,38.4421 C762.0652,13.8142 779.6003,21.1767 794.2747,44.3241 C807.1987,11.3564 830.4238,10.536 851.7692,36.044 C872.2897,10.7612 890.8082,11.9071 904.1588,42.738 C919.6666,11.6609 938.9766,11.9801 959.793,37.5217 C972.6739,10.6107 990.9663,15.6815 1007.1371,34.0843 C1022.7578,6.0618 1045.0818,6 1060.9699,33.8265 C1077.2391,7.2707 1100.6256,11.2429 1115.9685,34.8423 C1135.66,13.3474 1156.9762,12.6456 1169.0114,42.7176 C1182.3526,20.8254 1207.4293,19.3812 1220.5579,42.9586 C1233.3338,20.4672 1256.0205,19.5791 1268.2041,43.5657 C1288.2606,16.8474 1305.4715,14.4892 1325.395,43.7018 C1341.5966,15.8464 1365.6878,19.0106 1381.2494,44.3735 C1394.3374,22.7685 1411.9452,20.9943 1426.1611,43.2177 C1443.144,18.6156 1459.1739,18.7456 1478.4813,40.5998 C1488.4919,43.7291 1488.9256,50.5194 1482.8965,57.7726 C1492.9293,63.3079 1495.6794,71.1389 1485.104,78.8342 C1492.8043,85.7588 1492.4152,94.3899 1482.5681,99.1211 C1495.9196,107.5499 1494.3766,118.4949 1480.8504,125.1499 C1465.2326,150.9807 1441.5494,143.4946 1430.2209,120.6852 C1415.3878,148.9829 1394.4281,154.0266 1373.549,126.8632 C1357.4852,146.7271 1343.5981,147.963 1329.2487,125.0862 C1308.2487,154.0072 1287.8291,152.2124 1270.6722,121.3224 C1252.0938,149.318 1233.4617,142.5925 1216.0155,120.0967 C1204.3832,142.9574 1181.5276,149.2401 1165.9579,124.2124 C1150.7803,152.2444 1124.339,149.1883 1109.9373,123.4046 C1095.2418,148.6331 1077.6805,147.6839 1059.181,127.6725 C1040.3206,151.5938 1023.3816,152.317 1006.2833,125.8236 C986.8096,150.206 968.6513,148.4245 955.1288,120.0528 C939.3954,146.2846 922.3952,140.4172 906.9087,119.7987 C889.9413,145.2014 870.3663,149.9939 849.646,123.9783 C835.5841,144.4542 814.9173,143.3181 801.8308,122.8396 C785.5558,146.2448 759.3948,146.1843 744.2042,121.5391 C730.5338,117.7504 729.2765,106.5066 739.4215,97.8996 C728.6276,92.3141 731.4261,82.7817 739.9609,77.7126 C731.3367,71.9503 730.1649,63.1881 740.9978,58.4746 C731.0048,52.3573 732.462,43.5682 742.0137,38.4421 " fill="none" style="stroke:#181818;stroke-width:1.0;"/><text fill="#000000" font-family="sans-serif" font-size="14" font-weight="bold" lengthAdjust="spacing" textLength="115" x="1052" y="54.841">Пользователи</text></g><!--MD5=[beb5ad5244d3d849df9473931f7c2e5e]
entity GUI--><g id="elem_GUI"><rect fill="#F1F1F1" height="46.2969" rx="2.5" ry="2.5" style="stroke:#181818;stroke-width:0.5;" width="64" x="1068" y="198.8459"/><rect fill="#F1F1F1" height="10" style="stroke:#181818;stroke-width:0.5;" width="15" x="1112" y="203.8459"/><rect fill="#F1F1F1" height="2" style="stroke:#181818;stroke-width:0.5;" width="4" x="1110" y="205.8459"/><rect fill="#F1F1F1" height="2" style="stroke:#181818;stroke-width:0.5;" width="4" x="1110" y="209.8459"/><text fill="#000000" font-family="sans-serif" font-size="14" lengthAdjust="spacing" textLength="24" x="1083" y="231.841">GUI</text></g><!--MD5=[a47ed43f454106e543dc237915028dff]
entity APIClient--><g id="elem_APIClient"><rect fill="#F1F1F1" height="46.2969" rx="2.5" ry="2.5" style="stroke:#181818;stroke-width:0.5;" width="120" x="1040" y="305.8459"/><rect fill="#F1F1F1" height="10" style="stroke:#181818;stroke-width:0.5;" width="15" x="1140" y="310.8459"/><rect fill="#F1F1F1" height="2" style="stroke:#181818;stroke-width:0.5;" width="4" x="1138" y="312.8459"/><rect fill="#F1F1F1" height="2" style="stroke:#181818;stroke-width:0.5;" width="4" x="1138" y="316.8459"/><text fill="#000000" font-family="sans-serif" font-size="14" lengthAdjust="spacing" textLength="80" x="1055" y="338.841">API Клиент</text></g><!--MD5=[61cd25fba67235613b8afc34aee24c96]
entity Tables--><g id="elem_Tables"><path d="M643,961.3459 L684,961.3459 A3.75,3.75 0 0 1 686.5,963.8459 L693.5,982.3459 L733,982.3459 A2.5,2.5 0 0 1 735.5,984.8459 L735.5,1013.1427 A2.5,2.5 0 0 1 733,1015.6427 L643,1015.6427 A2.5,2.5 0 0 1 640.5,1013.1427 L640.5,963.8459 A2.5,2.5 0 0 1 643,961.3459 " fill="#F1F1F1" style="stroke:#181818;stroke-width:0.5;"/><line style="stroke:#181818;stroke-width:0.5;" x1="640.5" x2="693.5" y1="982.3459" y2="982.3459"/><text fill="#000000" font-family="sans-serif" font-size="14" lengthAdjust="spacing" textLength="65" x="650.5" y="1002.341">Таблицы</text></g><!--MD5=[1f9d7956da66e9c3f40daf39666a1c09]
entity SP--><g id="elem_SP"><path d="M773,961.3459 L814,961.3459 A3.75,3.75 0 0 1 816.5,963.8459 L823.5,982.3459 L959,982.3459 A2.5,2.5 0 0 1 961.5,984.8459 L961.5,1013.1427 A2.5,2.5 0 0 1 959,1015.6427 L773,1015.6427 A2.5,2.5 0 0 1 770.5,1013.1427 L770.5,963.8459 A2.5,2.5 0 0 1 773,961.3459 " fill="#F1F1F1" style="stroke:#181818;stroke-width:0.5;"/><line style="stroke:#181818;stroke-width:0.5;" x1="770.5" x2="823.5" y1="982.3459" y2="982.3459"/><text fill="#000000" font-family="sans-serif" font-size="14" lengthAdjust="spacing" textLength="161" x="780.5" y="1002.341">Хранимые процедуры</text></g><!--MD5=[3e16c5ebf4b4daacbb417a5459fd30c0]
entity REST API--><g id="elem_REST API"><rect fill="#F1F1F1" height="46.2969" rx="2.5" ry="2.5" style="stroke:#181818;stroke-width:0.5;" width="102" x="1296" y="499.8459"/><rect fill="#F1F1F1" height="10" style="stroke:#181818;stroke-width:0.5;" width="15" x="1378" y="504.8459"/><rect fill="#F1F1F1" height="2" style="stroke:#181818;stroke-width:0.5;" width="4" x="1376" y="506.8459"/><rect fill="#F1F1F1" height="2" style="stroke:#181818;stroke-width:0.5;" width="4" x="1376" y="510.8459"/><text fill="#000000" font-family="sans-serif" font-size="14" lengthAdjust="spacing" textLength="62" x="1311" y="532.841">REST API</text></g><!--MD5=[2002df20a92dfc2017c9b124a6879c25]
entity Auth Service--><g id="elem_Auth Service"><rect fill="#F1F1F1" height="46.2969" rx="2.5" ry="2.5" style="stroke:#181818;stroke-width:0.5;" width="126" x="1135" y="499.8459"/><rect fill="#F1F1F1" height="10" style="stroke:#181818;stroke-width:0.5;" width="15" x="1241" y="504.8459"/><rect fill="#F1F1F1" height="2" style="stroke:#181818;stroke-width:0.5;" width="4" x="1239" y="506.8459"/><rect fill="#F1F1F1" height="2" style="stroke:#181818;stroke-width:0.5;" width="4" x="1239" y="510.8459"/><text fill="#000000" font-family="sans-serif" font-size="14" lengthAdjust="spacing" textLength="86" x="1150" y="532.841">Auth Service</text></g><!--MD5=[397573e3450b4c186edfa9fcbca831e2]
entity Обработка заказов--><g id="elem_Обработка заказов"><rect fill="#F1F1F1" height="46.2969" rx="2.5" ry="2.5" style="stroke:#181818;stroke-width:0.5;" width="181" x="72.5" y="679.8459"/><rect fill="#F1F1F1" height="10" style="stroke:#181818;stroke-width:0.5;" width="15" x="233.5" y="684.8459"/><rect fill="#F1F1F1" height="2" style="stroke:#181818;stroke-width:0.5;" width="4" x="231.5" y="686.8459"/><rect fill="#F1F1F1" height="2" style="stroke:#181818;stroke-width:0.5;" width="4" x="231.5" y="690.8459"/><text fill="#000000" font-family="sans-serif" font-size="14" lengthAdjust="spacing" textLength="141" x="87.5" y="712.841">Обработка заказов</text></g><!--MD5=[fca8fa73a96008ca349e95449d4b3c5b]
entity Управление анализаторами--><g id="elem_Управление анализаторами"><rect fill="#F1F1F1" height="46.2969" rx="2.5" ry="2.5" style="stroke:#181818;stroke-width:0.5;" width="244" x="289" y="679.8459"/><rect fill="#F1F1F1" height="10" style="stroke:#181818;stroke-width:0.5;" width="15" x="513" y="684.8459"/><rect fill="#F1F1F1" height="2" style="stroke:#181818;stroke-width:0.5;" width="4" x="511" y="686.8459"/><rect fill="#F1F1F1" height="2" style="stroke:#181818;stroke-width:0.5;" width="4" x="511" y="690.8459"/><text fill="#000000" font-family="sans-serif" font-size="14" lengthAdjust="spacing" textLength="204" x="304" y="712.841">Управление анализаторами</text></g><!--MD5=[816eaebcff64cbda213b781788df0469]
entity Генерация отчетов--><g id="elem_Генерация отчетов"><rect fill="#F1F1F1" height="46.2969" rx="2.5" ry="2.5" style="stroke:#181818;stroke-width:0.5;" width="184" x="72" y="836.3459"/><rect fill="#F1F1F1" height="10" style="stroke:#181818;stroke-width:0.5;" width="15" x="236" y="841.3459"/><rect fill="#F1F1F1" height="2" style="stroke:#181818;stroke-width:0.5;" width="4" x="234" y="843.3459"/><rect fill="#F1F1F1" height="2" style="stroke:#181818;stroke-width:0.5;" width="4" x="234" y="847.3459"/><text fill="#000000" font-family="sans-serif" font-size="14" lengthAdjust="spacing" textLength="144" x="87" y="869.341">Генерация отчетов</text></g><!--MD5=[6da487c7238b9429bf3e3c1b7585fc5c]
entity PDF Generator--><g id="elem_PDF Generator"><rect fill="#F1F1F1" height="46.2969" rx="2.5" ry="2.5" style="stroke:#181818;stroke-width:0.5;" width="142" x="1069" y="836.3459"/><rect fill="#F1F1F1" height="10" style="stroke:#181818;stroke-width:0.5;" width="15" x="1191" y="841.3459"/><rect fill="#F1F1F1" height="2" style="stroke:#181818;stroke-width:0.5;" width="4" x="1189" y="843.3459"/><rect fill="#F1F1F1" height="2" style="stroke:#181818;stroke-width:0.5;" width="4" x="1189" y="847.3459"/><text fill="#000000" font-family="sans-serif" font-size="14" lengthAdjust="spacing" textLength="102" x="1084" y="869.341">PDF Generator</text></g><!--MD5=[3132d80a47484155ea571281439c1e24]
entity Barcode Service--><g id="elem_Barcode Service"><rect fill="#F1F1F1" height="46.2969" rx="2.5" ry="2.5" style="stroke:#181818;stroke-width:0.5;" width="152" x="1246" y="836.3459"/><rect fill="#F1F1F1" height="10" style="stroke:#181818;stroke-width:0.5;" width="15" x="1378" y="841.3459"/><rect fill="#F1F1F1" height="2" style="stroke:#181818;stroke-width:0.5;" width="4" x="1376" y="843.3459"/><rect fill="#F1F1F1" height="2" style="stroke:#181818;stroke-width:0.5;" width="4" x="1376" y="847.3459"/><text fill="#000000" font-family="sans-serif" font-size="14" lengthAdjust="spacing" textLength="112" x="1261" y="869.341">Barcode Service</text></g><!--MD5=[9614b6ae5720ee8e99912a88b317f11d]
entity Report Engine--><g id="elem_Report Engine"><rect fill="#F1F1F1" height="46.2969" rx="2.5" ry="2.5" style="stroke:#181818;stroke-width:0.5;" width="139" x="1070.5" y="965.3459"/><rect fill="#F1F1F1" height="10" style="stroke:#181818;stroke-width:0.5;" width="15" x="1189.5" y="970.3459"/><rect fill="#F1F1F1" height="2" style="stroke:#181818;stroke-width:0.5;" width="4" x="1187.5" y="972.3459"/><rect fill="#F1F1F1" height="2" style="stroke:#181818;stroke-width:0.5;" width="4" x="1187.5" y="976.3459"/><text fill="#000000" font-family="sans-serif" font-size="14" lengthAdjust="spacing" textLength="99" x="1085.5" y="998.341">Report Engine</text></g><!--MD5=[ccf70f5b4dc53f11b08ff970995a0d11]
entity Analyzers--><g id="elem_Analyzers"><rect fill="#F1F1F1" height="46.2969" rx="2.5" ry="2.5" style="stroke:#181818;stroke-width:0.5;" width="138" x="1494" y="679.8459"/><rect fill="#F1F1F1" height="10" style="stroke:#181818;stroke-width:0.5;" width="15" x="1612" y="684.8459"/><rect fill="#F1F1F1" height="2" style="stroke:#181818;stroke-width:0.5;" width="4" x="1610" y="686.8459"/><rect fill="#F1F1F1" height="2" style="stroke:#181818;stroke-width:0.5;" width="4" x="1610" y="690.8459"/><text fill="#000000" font-family="sans-serif" font-size="14" lengthAdjust="spacing" textLength="98" x="1509" y="712.841">Анализаторы</text></g><!--MD5=[1f684f0298694fdc450f2524689bdb7b]
entity Payment--><g id="elem_Payment"><rect fill="#F1F1F1" height="46.2969" rx="2.5" ry="2.5" style="stroke:#181818;stroke-width:0.5;" width="195" x="1667.5" y="679.8459"/><rect fill="#F1F1F1" height="10" style="stroke:#181818;stroke-width:0.5;" width="15" x="1842.5" y="684.8459"/><rect fill="#F1F1F1" height="2" style="stroke:#181818;stroke-width:0.5;" width="4" x="1840.5" y="686.8459"/><rect fill="#F1F1F1" height="2" style="stroke:#181818;stroke-width:0.5;" width="4" x="1840.5" y="690.8459"/><text fill="#000000" font-family="sans-serif" font-size="14" lengthAdjust="spacing" textLength="155" x="1682.5" y="712.841">Платежные системы</text></g><!--MD5=[56cc7d31cfac58d9da57361bab490112]
entity SMEV--><g id="elem_SMEV"><rect fill="#F1F1F1" height="46.2969" rx="2.5" ry="2.5" style="stroke:#181818;stroke-width:0.5;" width="82" x="1898" y="679.8459"/><rect fill="#F1F1F1" height="10" style="stroke:#181818;stroke-width:0.5;" width="15" x="1960" y="684.8459"/><rect fill="#F1F1F1" height="2" style="stroke:#181818;stroke-width:0.5;" width="4" x="1958" y="686.8459"/><rect fill="#F1F1F1" height="2" style="stroke:#181818;stroke-width:0.5;" width="4" x="1958" y="690.8459"/><text fill="#000000" font-family="sans-serif" font-size="14" lengthAdjust="spacing" textLength="42" x="1913" y="712.841">СМЭВ</text></g><!--MD5=[cec1c46a5b41b275eee21f77f21aed13]
entity Администратор--><g id="elem_Администратор"><rect fill="#F1F1F1" height="46.2969" rx="2.5" ry="2.5" style="stroke:#181818;stroke-width:0.5;" width="157" x="749.5" y="63.8459"/><rect fill="#F1F1F1" height="10" style="stroke:#181818;stroke-width:0.5;" width="15" x="886.5" y="68.8459"/><rect fill="#F1F1F1" height="2" style="stroke:#181818;stroke-width:0.5;" width="4" x="884.5" y="70.8459"/><rect fill="#F1F1F1" height="2" style="stroke:#181818;stroke-width:0.5;" width="4" x="884.5" y="74.8459"/><text fill="#000000" font-family="sans-serif" font-size="14" lengthAdjust="spacing" textLength="117" x="764.5" y="96.841">Администратор</text></g><!--MD5=[1f749dc538b58de20f11c4c3c790ccc4]
entity Лаборант--><g id="elem_Лаборант"><rect fill="#F1F1F1" height="46.2969" rx="2.5" ry="2.5" style="stroke:#181818;stroke-width:0.5;" width="112" x="942" y="63.8459"/><rect fill="#F1F1F1" height="10" style="stroke:#181818;stroke-width:0.5;" width="15" x="1034" y="68.8459"/><rect fill="#F1F1F1" height="2" style="stroke:#181818;stroke-width:0.5;" width="4" x="1032" y="70.8459"/><rect fill="#F1F1F1" height="2" style="stroke:#181818;stroke-width:0.5;" width="4" x="1032" y="74.8459"/><text fill="#000000" font-family="sans-serif" font-size="14" lengthAdjust="spacing" textLength="72" x="957" y="96.841">Лаборант</text></g><!--MD5=[d599646a67614512f2e25266946588ef]
entity Лаборант-исследователь--><g id="elem_Лаборант-исследователь"><rect fill="#F1F1F1" height="46.2969" rx="2.5" ry="2.5" style="stroke:#181818;stroke-width:0.5;" width="230" x="1089" y="63.8459"/><rect fill="#F1F1F1" height="10" style="stroke:#181818;stroke-width:0.5;" width="15" x="1299" y="68.8459"/><rect fill="#F1F1F1" height="2" style="stroke:#181818;stroke-width:0.5;" width="4" x="1297" y="70.8459"/><rect fill="#F1F1F1" height="2" style="stroke:#181818;stroke-width:0.5;" width="4" x="1297" y="74.8459"/><text fill="#000000" font-family="sans-serif" font-size="14" lengthAdjust="spacing" textLength="190" x="1104" y="96.841">Лаборант-исследователь</text></g><!--MD5=[4e305a7982589149014e0a8ae16841bf]
entity Бухгалтер--><g id="elem_Бухгалтер"><rect fill="#F1F1F1" height="46.2969" rx="2.5" ry="2.5" style="stroke:#181818;stroke-width:0.5;" width="115" x="1354.5" y="63.8459"/><rect fill="#F1F1F1" height="10" style="stroke:#181818;stroke-width:0.5;" width="15" x="1449.5" y="68.8459"/><rect fill="#F1F1F1" height="2" style="stroke:#181818;stroke-width:0.5;" width="4" x="1447.5" y="70.8459"/><rect fill="#F1F1F1" height="2" style="stroke:#181818;stroke-width:0.5;" width="4" x="1447.5" y="74.8459"/><text fill="#000000" font-family="sans-serif" font-size="14" lengthAdjust="spacing" textLength="75" x="1369.5" y="96.841">Бухгалтер</text></g><g id="elem_GMN145"><path d="M1470.5,479.8459 L1470.5,565.5099 L1821.5,565.5099 L1821.5,489.8459 L1811.5,479.8459 L1470.5,479.8459 " fill="#FEFFDD" style="stroke:#181818;stroke-width:0.5;"/><path d="M1811.5,479.8459 L1811.5,489.8459 L1821.5,489.8459 L1811.5,479.8459 " fill="#FEFFDD" style="stroke:#181818;stroke-width:1.0;"/><text fill="#000000" font-family="sans-serif" font-size="13" lengthAdjust="spacing" textLength="162" x="1476.5" y="496.9127">Основные API endpoints:</text><text fill="#000000" font-family="sans-serif" font-size="13" lengthAdjust="spacing" textLength="196" x="1476.5" y="512.0456">- /api/auth (аутентификация)</text><text fill="#000000" font-family="sans-serif" font-size="13" lengthAdjust="spacing" textLength="237" x="1476.5" y="527.1784">- /api/orders (управление заказами)</text><text fill="#000000" font-family="sans-serif" font-size="13" lengthAdjust="spacing" textLength="330" x="1476.5" y="542.3112">- /api/analyzer/{name} (работа с анализаторами)</text><text fill="#000000" font-family="sans-serif" font-size="13" lengthAdjust="spacing" textLength="230" x="1476.5" y="557.444">- /api/reports (генерация отчетов)</text></g><g id="elem_GMN148"><path d="M2015,667.3459 L2015,737.8771 L2233,737.8771 L2233,677.3459 L2223,667.3459 L2015,667.3459 " fill="#FEFFDD" style="stroke:#181818;stroke-width:0.5;"/><path d="M2223,667.3459 L2223,677.3459 L2233,677.3459 L2223,667.3459 " fill="#FEFFDD" style="stroke:#181818;stroke-width:1.0;"/><text fill="#000000" font-family="sans-serif" font-size="13" lengthAdjust="spacing" textLength="164" x="2021" y="684.4127">Примеры анализаторов:</text><text fill="#000000" font-family="sans-serif" font-size="13" lengthAdjust="spacing" textLength="65" x="2021" y="699.5456">- Ledetect</text><text fill="#000000" font-family="sans-serif" font-size="13" lengthAdjust="spacing" textLength="50" x="2021" y="714.6784">- Biorad</text><text fill="#000000" font-family="sans-serif" font-size="13" lengthAdjust="spacing" textLength="197" x="2021" y="729.8112">Подключение через HTTP API</text></g><!--MD5=[c913dcef251a42e6909cac5e7738ffb1]
link GUI to APIClient--><g id="link_GUI_APIClient"><path d="M1100,244.8559 C1100,260.9859 1100,282.9959 1100,300.2959 " fill="none" id="GUI-to-APIClient" style="stroke:#181818;stroke-width:1.0;"/><polygon fill="#181818" points="1100,305.5059,1104,296.5059,1100,300.5059,1096,296.5059,1100,305.5059" style="stroke:#181818;stroke-width:1.0;"/></g><!--MD5=[a6eb1c1a6fd1884cf38ccaee0891f2f5]
link APIClient to APIServer--><g id="link_APIClient_APIServer"><path d="M1100,351.8659 C1100,376.6909 1100,418.2559 1100,454.0684 C1100,454.6279 1100,455.1861 1100,455.7428 C1100,456.0211 1100,456.2991 1100,456.5767 " fill="none" id="APIClient-to-APIServer" style="stroke:#181818;stroke-width:1.0;"/><polygon fill="#181818" points="1100,456.5767,1104,447.5767,1100,451.5767,1096,447.5767,1100,456.5767" style="stroke:#181818;stroke-width:1.0;"/></g><!--MD5=[f5f182d707dee8fb3a112c6d2041f196]
link APIServer to BusinessLogic--><g id="link_APIServer_BusinessLogic"><path d="M1091.8656,526.5646 C1091.588,526.6575 1091.3038,526.7526 1091.0129,526.8499 C1090.4311,527.0446 1089.8227,527.2482 1089.1881,527.4605 C1087.919,527.8852 1086.5454,528.3448 1085.071,528.8382 C1082.1224,529.8248 1078.7711,530.9462 1075.0481,532.1919 C1060.156,537.1748 1039.3166,544.1476 1014.5127,552.4468 C964.9047,569.0452 899.4381,590.9496 833.9738,612.8534 C768.5094,634.7571 703.0472,656.6602 653.448,673.2562 C628.6484,681.5541 607.8145,688.5253 592.929,693.5064 C589.2076,694.7516 585.858,695.8725 582.9111,696.8586 C581.4377,697.3517 580.0649,697.8111 578.7968,698.2355 C578.1627,698.4477 577.5547,698.6511 576.9734,698.8457 C576.6827,698.943 576.3987,699.038 576.1214,699.1308 " fill="none" id="APIServer-to-BusinessLogic" style="stroke:#181818;stroke-width:1.0;"/><polygon fill="#181818" points="576.1214,699.1308,585.9256,700.0678,580.8629,697.544,583.3867,692.4813,576.1214,699.1308" style="stroke:#181818;stroke-width:1.0;"/></g><!--MD5=[86302f82abfb925e1bc867fff8fb23e5]
link BusinessLogic to DB--><g id="link_BusinessLogic_DB"><path d="M576.1812,714.3784 C576.4247,714.692 576.6728,715.0116 576.9256,715.3371 C577.9366,716.639 579.0208,718.0353 580.1717,719.5173 C582.4735,722.4813 585.0417,725.7884 587.8231,729.3699 C598.9488,743.6959 613.485,762.4121 628.02,781.1259 C635.2875,790.4827 642.5547,799.839 649.3951,808.6455 C651.1052,810.8471 652.7886,813.0144 654.4387,815.1387 C654.8512,815.6698 655.2616,816.1982 655.6699,816.7238 " fill="none" id="BusinessLogic-to-DB" style="stroke:#181818;stroke-width:1.0;"/><polygon fill="#181818" points="655.6699,816.7238,653.3079,807.1624,652.6027,812.7751,646.99,812.0699,655.6699,816.7238" style="stroke:#181818;stroke-width:1.0;"/></g><!--MD5=[4c23bf8f4de2f5466a13e71bf4c23640]
link BusinessLogic to Services--><g id="link_BusinessLogic_Services"><path d="M576.5686,704.2799 C577.0306,704.3047 577.5101,704.3307 578.0067,704.3577 C579.9935,704.4659 582.2555,704.592 584.7744,704.7367 C594.8499,705.3155 609.0345,706.1924 626.1433,707.4159 C660.3609,709.8627 706.2756,713.6959 754.4088,719.3034 C850.675,730.5184 955.815,748.8309 994,777.3459 C1009.58,788.9809 1019.4525,808.3484 1025.4913,825.2284 C1025.5856,825.4921 1025.679,825.7552 1025.7715,826.0177 C1025.8178,826.149 1025.8638,826.2801 1025.9096,826.411 " fill="none" id="BusinessLogic-to-Services" style="stroke:#181818;stroke-width:1.0;"/><polygon fill="#181818" points="1025.9096,826.411,1026.7145,816.5951,1024.2591,821.6913,1019.1629,819.2358,1025.9096,826.411" style="stroke:#181818;stroke-width:1.0;"/></g><!--MD5=[91bf6724810e3cd7a4a2a2f3235a325d]
link APIServer to Analyzers--><g id="link_APIServer_Analyzers"><path d="M1108.1764,569.8914 C1108.2215,569.9921 1108.2669,570.0927 1108.3125,570.1933 C1108.4037,570.3943 1108.496,570.5948 1108.5892,570.7949 C1108.9621,571.5952 1109.3509,572.3877 1109.7564,573.1707 C1110.5674,574.7365 1111.445,576.2642 1112.3946,577.7393 C1114.2939,580.6894 1116.4813,583.4296 1119,585.8459 C1171.64,636.3259 1376.1,673.9359 1488.29,691.2659 " fill="none" id="APIServer-to-Analyzers" style="stroke:#181818;stroke-width:1.0;"/><polygon fill="#181818" points="1493.56,692.0759,1485.2694,686.7593,1488.6176,691.3188,1484.0581,694.667,1493.56,692.0759" style="stroke:#181818;stroke-width:1.0;"/><text fill="#000000" font-family="sans-serif" font-size="13" lengthAdjust="spacing" textLength="68" x="1158" y="608.9127">HTTP/JSON</text></g><!--MD5=[5407a99a46e41c4fde48084d330e708b]
link APIServer to Payment--><g id="link_APIServer_Payment"><path d="M1107.1725,570.1309 C1107.2183,570.2302 1107.2643,570.3294 1107.3106,570.4284 C1107.4959,570.8246 1107.6855,571.2184 1107.8798,571.6096 C1108.2683,572.392 1108.675,573.164 1109.1008,573.9237 C1109.9523,575.4431 1110.88,576.9132 1111.8905,578.3184 C1113.9116,581.1288 1116.2638,583.6796 1119,585.8459 C1124.79,590.4359 1643.03,618.3859 1650,620.8459 C1683.38,632.6459 1715.84,657.0559 1737.71,676.0159 " fill="none" id="APIServer-to-Payment" style="stroke:#181818;stroke-width:1.0;"/><polygon fill="#181818" points="1741.67,679.4859,1737.5476,670.5412,1737.9133,676.1863,1732.2683,676.5519,1741.67,679.4859" style="stroke:#181818;stroke-width:1.0;"/></g><!--MD5=[a0edc3772b83c90758379b7854979cc3]
link APIServer to SMEV--><g id="link_APIServer_SMEV"><path d="M1106.9166,569.9854 C1107.0075,570.1839 1107.0995,570.3819 1107.1927,570.5793 C1107.379,570.9741 1107.5699,571.3664 1107.7654,571.756 C1108.1564,572.5352 1108.5661,573.3035 1108.9951,574.0591 C1109.8532,575.5702 1110.789,577.0299 1111.8093,578.4226 C1113.85,581.2079 1116.2288,583.7246 1119,585.8459 C1132.15,595.9159 1400.45,595.1259 1417,595.8459 C1519.94,600.3559 1789.46,571.6659 1880,620.8459 C1901.7,632.6359 1917.48,656.2559 1927.23,674.9659 " fill="none" id="APIServer-to-SMEV" style="stroke:#181818;stroke-width:1.0;"/><polygon fill="#181818" points="1929.58,679.6059,1929.0825,669.7696,1927.3211,675.1452,1921.9454,673.3838,1929.58,679.6059" style="stroke:#181818;stroke-width:1.0;"/></g><!--MD5=[5902696d240d66b8baef037a938beb44]
reverse link DB to Tables--><g id="link_DB_Tables"><path d="M688,860.4359 C688,863.1459 688,924.7859 688,961.1459 " fill="none" id="DB-backto-Tables" style="stroke:#181818;stroke-width:1.0;"/><polygon fill="#181818" points="688,860.4359,684,866.4359,688,872.4359,692,866.4359,688,860.4359" style="stroke:#181818;stroke-width:1.0;"/><text fill="#000000" font-family="sans-serif" font-size="13" lengthAdjust="spacing" textLength="8" x="680" y="872.5027">1</text><text fill="#000000" font-family="sans-serif" font-size="13" lengthAdjust="spacing" textLength="8" x="679.075" y="950.1694">1</text></g><!--MD5=[7a5070e5f6b70318dbdea22eea27b6e1]
reverse link DB to SP--><g id="link_DB_SP"><path d="M688.13,860.4359 C691.92,863.1459 778.32,924.7859 829.28,961.1459 " fill="none" id="DB-backto-SP" style="stroke:#181818;stroke-width:1.0;"/><polygon fill="#181818" points="688.13,860.4359,690.6841,867.1795,697.8913,867.4156,695.3372,860.6719,688.13,860.4359" style="stroke:#181818;stroke-width:1.0;"/><text fill="#000000" font-family="sans-serif" font-size="13" lengthAdjust="spacing" textLength="8" x="688.13" y="857.5027">1</text><text fill="#000000" font-family="sans-serif" font-size="13" lengthAdjust="spacing" textLength="8" x="811.8635" y="950.1694">1</text></g><!--MD5=[f66431d7db5b490fb00a025ab4a81253]
link Администратор to GUI--><g id="link_Администратор_GUI"><path d="M873.22,109.9559 C926.49,136.0059 1013.95,178.7759 1063.24,202.8759 " fill="none" id="Администратор-to-GUI" style="stroke:#181818;stroke-width:1.0;"/><polygon fill="#181818" points="1067.89,205.1459,1061.5614,197.5994,1063.3981,202.9498,1058.0477,204.7865,1067.89,205.1459" style="stroke:#181818;stroke-width:1.0;"/></g><!--MD5=[c5213edffe5b52b1a90e24e67def4953]
link Лаборант to GUI--><g id="link_Лаборант_GUI"><path d="M1015.07,110.1059 C1032.87,133.3159 1060.76,169.6759 1079.68,194.3559 " fill="none" id="Лаборант-to-GUI" style="stroke:#181818;stroke-width:1.0;"/><polygon fill="#181818" points="1082.87,198.5159,1080.5714,188.939,1079.829,194.5469,1074.2211,193.8045,1082.87,198.5159" style="stroke:#181818;stroke-width:1.0;"/></g><!--MD5=[b495ef38e41adca4a1367a02b643fd40]
link Лаборант-исследователь to GUI--><g id="link_Лаборант-исследователь_GUI"><path d="M1186.59,110.1059 C1168.44,133.3159 1140.01,169.6759 1120.72,194.3559 " fill="none" id="Лаборант-исследователь-to-GUI" style="stroke:#181818;stroke-width:1.0;"/><polygon fill="#181818" points="1117.46,198.5159,1126.1649,193.9089,1120.5485,194.5838,1119.8736,188.9673,1117.46,198.5159" style="stroke:#181818;stroke-width:1.0;"/></g><!--MD5=[c6809d5eb7126a66a4a975af16e56956]
link Бухгалтер to GUI--><g id="link_Бухгалтер_GUI"><path d="M1379.2,109.9159 C1366.36,118.0359 1351.3,126.9259 1337,133.8459 C1268.87,166.8359 1184.8,194.9159 1137.3,209.6859 " fill="none" id="Бухгалтер-to-GUI" style="stroke:#181818;stroke-width:1.0;"/><polygon fill="#181818" points="1132.26,211.2459,1142.0381,212.4242,1137.0392,209.7764,1139.687,204.7775,1132.26,211.2459" style="stroke:#181818;stroke-width:1.0;"/></g><!--MD5=[20d8ae5066467eb160b9cbca84c1b29f]
link APIServer to GMN145--><g id="link_APIServer_GMN145"><path d="M1097.6171,456.7785 C1097.7839,455.08 1097.9726,453.3724 1098.1849,451.6589 C1099.0339,444.805 1100.2601,437.8569 1101.9742,431.0151 C1105.4025,417.3315 1110.7825,404.0734 1119,392.8459 C1124.11,385.8659 1128.07,386.2859 1136.5,384.3459 C1164.65,377.8659 1368.35,377.8659 1396.5,384.3459 C1468.92,401.0059 1542.13,445.6859 1590.35,479.8459 " fill="none" id="APIServer-GMN145" style="stroke:#181818;stroke-width:1.0;stroke-dasharray:7.0,7.0;"/></g><!--MD5=[0d482fabecb07d380b87fdc8409e2408]
link GMN148 to Analyzers--><g id="link_GMN148_Analyzers"><path d="M2085.77,667.1159 C2058.26,643.9659 2018.99,615.8659 1978.5,603.3459 C1912.47,582.9259 1731.67,577.6859 1667.5,603.3459 C1629.35,618.6059 1597.2,655.1459 1579.01,679.4459 " fill="none" id="GMN148-Analyzers" style="stroke:#181818;stroke-width:1.0;stroke-dasharray:7.0,7.0;"/></g><!--MD5=[d489fca4539b2b5e7b5a797060a9993f]
@startuml
node "Клиентское приложение (Windows)" {
  component "GUI" as GUI
  component "API Клиент" as APIClient
}

node "Сервер приложений" {
  database "База данных" as DB {
    folder "Таблицы" as Tables
    folder "Хранимые процедуры" as SP
  }
  
  component "API Сервер" as APIServer {
    [REST API]
    [Auth Service]
  }
  
  component "Бизнес-логика" as BusinessLogic {
    [Обработка заказов]
    [Управление анализаторами]
    [Генерация отчетов]
  }
  
  component "Сервисы" as Services {
    [PDF Generator]
    [Barcode Service]
    [Report Engine]
  }
}

node "Внешние системы" {
  [Анализаторы] as Analyzers
  [Платежные системы] as Payment
  [СМЭВ] as SMEV
}

GUI - -> APIClient
APIClient - -> APIServer
APIServer - -> BusinessLogic
BusinessLogic - -> DB
BusinessLogic - -> Services
APIServer - -> Analyzers : HTTP/JSON
APIServer - -> Payment
APIServer - -> SMEV

DB "1" *- - "1" Tables
DB "1" *- - "1" SP

cloud "Пользователи" {
  [Администратор] - -> GUI
  [Лаборант] - -> GUI
  [Лаборант-исследователь] - -> GUI
  [Бухгалтер] - -> GUI
}

note right of APIServer
  Основные API endpoints:
  - /api/auth (аутентификация)
  - /api/orders (управление заказами)
  - /api/analyzer/{name} (работа с анализаторами)
  - /api/reports (генерация отчетов)
end note

note left of Analyzers
  Примеры анализаторов:
  - Ledetect
  - Biorad
  Подключение через HTTP API
end note
@enduml

PlantUML version 1.2022.7(Mon Aug 22 17:01:30 UTC 2022)
(GPL source distribution)
Java Runtime: OpenJDK Runtime Environment
JVM: OpenJDK 64-Bit Server VM
Default Encoding: UTF-8
Language: en
Country: null
--></g></svg>