<?xml version="1.0" encoding="UTF-8" standalone="no"?><svg xmlns="http://www.w3.org/2000/svg" xmlns:xlink="http://www.w3.org/1999/xlink" contentStyleType="text/css" height="1064px" preserveAspectRatio="none" style="width:515px;height:1064px;background:#FFFFFF;" version="1.1" viewBox="0 0 515 1064" width="515px" zoomAndPan="magnify"><defs/><g><!--MD5=[c408d2833cc09f77d14eaf7eb19252d4]
entity Пациент--><g id="elem_Пациент"><ellipse cx="64.5" cy="409" fill="#F1F1F1" rx="8" ry="8" style="stroke:#181818;stroke-width:0.5;"/><path d="M64.5,417 L64.5,444 M51.5,425 L77.5,425 M64.5,444 L51.5,459 M64.5,444 L77.5,459 " fill="none" style="stroke:#181818;stroke-width:0.5;"/><text fill="#000000" font-family="sans-serif" font-size="14" lengthAdjust="spacing" textLength="64" x="32.5" y="473.4951">Пациент</text></g><!--MD5=[1f749dc538b58de20f11c4c3c790ccc4]
entity Лаборант--><g id="elem_Лаборант"><ellipse cx="64.5" cy="721" fill="#F1F1F1" rx="8" ry="8" style="stroke:#181818;stroke-width:0.5;"/><path d="M64.5,729 L64.5,756 M51.5,737 L77.5,737 M64.5,756 L51.5,771 M64.5,756 L77.5,771 " fill="none" style="stroke:#181818;stroke-width:0.5;"/><text fill="#000000" font-family="sans-serif" font-size="14" lengthAdjust="spacing" textLength="72" x="28.5" y="785.4951">Лаборант</text></g><!--MD5=[cec1c46a5b41b275eee21f77f21aed13]
entity Администратор--><g id="elem_Администратор"><ellipse cx="64.5" cy="923" fill="#F1F1F1" rx="8" ry="8" style="stroke:#181818;stroke-width:0.5;"/><path d="M64.5,931 L64.5,958 M51.5,939 L77.5,939 M64.5,958 L51.5,973 M64.5,958 L77.5,973 " fill="none" style="stroke:#181818;stroke-width:0.5;"/><text fill="#000000" font-family="sans-serif" font-size="14" lengthAdjust="spacing" textLength="117" x="6" y="987.4951">Администратор</text></g><!--MD5=[6dae90b33915aac780393f87362d772b]
entity Врач--><g id="elem_Врач"><ellipse cx="64.5" cy="206" fill="#F1F1F1" rx="8" ry="8" style="stroke:#181818;stroke-width:0.5;"/><path d="M64.5,214 L64.5,241 M51.5,222 L77.5,222 M64.5,241 L51.5,256 M64.5,241 L77.5,256 " fill="none" style="stroke:#181818;stroke-width:0.5;"/><text fill="#000000" font-family="sans-serif" font-size="14" lengthAdjust="spacing" textLength="35" x="47" y="270.4951">Врач</text></g><!--MD5=[4e305a7982589149014e0a8ae16841bf]
entity Бухгалтер--><g id="elem_Бухгалтер"><ellipse cx="64.5" cy="36" fill="#F1F1F1" rx="8" ry="8" style="stroke:#181818;stroke-width:0.5;"/><path d="M64.5,44 L64.5,71 M51.5,52 L77.5,52 M64.5,71 L51.5,86 M64.5,71 L77.5,86 " fill="none" style="stroke:#181818;stroke-width:0.5;"/><text fill="#000000" font-family="sans-serif" font-size="14" lengthAdjust="spacing" textLength="75" x="27" y="100.4951">Бухгалтер</text></g><g id="elem_Регистрация в системе"><ellipse cx="373.5751" cy="438.715" fill="#F1F1F1" rx="104.0751" ry="23.215" style="stroke:#181818;stroke-width:0.5;"/><text fill="#000000" font-family="sans-serif" font-size="14" lengthAdjust="spacing" textLength="173" x="287.0751" y="441.5617">Регистрация в системе</text></g><g id="elem_Просмотр результатов анализов"><ellipse cx="373.3751" cy="350.675" fill="#F1F1F1" rx="136.3751" ry="29.675" style="stroke:#181818;stroke-width:0.5;"/><text fill="#000000" font-family="sans-serif" font-size="14" lengthAdjust="spacing" textLength="242" x="252.3751" y="353.5217">Просмотр результатов анализов</text></g><g id="elem_Запрос на проведение анализов"><ellipse cx="373.4476" cy="526.3895" fill="#F1F1F1" rx="134.9476" ry="29.3895" style="stroke:#181818;stroke-width:0.5;"/><text fill="#000000" font-family="sans-serif" font-size="14" lengthAdjust="spacing" textLength="239" x="253.9476" y="529.2362">Запрос на проведение анализов</text></g><g id="elem_Прием биоматериала"><ellipse cx="373.3093" cy="779.2619" fill="#F1F1F1" rx="96.8093" ry="21.7619" style="stroke:#181818;stroke-width:0.5;"/><text fill="#000000" font-family="sans-serif" font-size="14" lengthAdjust="spacing" textLength="157" x="294.8093" y="782.1085">Прием биоматериала</text></g><g id="elem_Проведение анализов"><ellipse cx="373.5203" cy="687.3041" fill="#F1F1F1" rx="99.5203" ry="22.3041" style="stroke:#181818;stroke-width:0.5;"/><text fill="#000000" font-family="sans-serif" font-size="14" lengthAdjust="spacing" textLength="163" x="292.0203" y="690.1507">Проведение анализов</text></g><g id="elem_Ввод результатов"><ellipse cx="373.5998" cy="610.72" fill="#F1F1F1" rx="86.5998" ry="19.72" style="stroke:#181818;stroke-width:0.5;"/><text fill="#000000" font-family="sans-serif" font-size="14" lengthAdjust="spacing" textLength="134" x="306.5998" y="613.5666">Ввод результатов</text></g><g id="elem_Назначение анализов"><ellipse cx="373.711" cy="174.4422" fill="#F1F1F1" rx="97.711" ry="21.9422" style="stroke:#181818;stroke-width:0.5;"/><text fill="#000000" font-family="sans-serif" font-size="14" lengthAdjust="spacing" textLength="159" x="294.211" y="177.2889">Назначение анализов</text></g><g id="elem_Интерпретация результатов"><ellipse cx="373.6205" cy="258.5241" fill="#F1F1F1" rx="123.1205" ry="27.0241" style="stroke:#181818;stroke-width:0.5;"/><text fill="#000000" font-family="sans-serif" font-size="14" lengthAdjust="spacing" textLength="214" x="266.6205" y="261.3708">Интерпретация результатов</text></g><g id="elem_Управление пользователями"><ellipse cx="373.6502" cy="952.43" fill="#F1F1F1" rx="122.6502" ry="26.93" style="stroke:#181818;stroke-width:0.5;"/><text fill="#000000" font-family="sans-serif" font-size="14" lengthAdjust="spacing" textLength="213" x="267.1502" y="955.2767">Управление пользователями</text></g><g id="elem_Управление услугами"><ellipse cx="373.3591" cy="1036.6718" fill="#F1F1F1" rx="96.3591" ry="21.6718" style="stroke:#181818;stroke-width:0.5;"/><text fill="#000000" font-family="sans-serif" font-size="14" lengthAdjust="spacing" textLength="156" x="295.3591" y="1039.5185">Управление услугами</text></g><g id="elem_Управление оборудованием"><ellipse cx="373.3655" cy="863.2731" fill="#F1F1F1" rx="119.3655" ry="26.2731" style="stroke:#181818;stroke-width:0.5;"/><text fill="#000000" font-family="sans-serif" font-size="14" lengthAdjust="spacing" textLength="206" x="270.3655" y="866.1198">Управление оборудованием</text></g><g id="elem_Формирование счетов"><ellipse cx="373.3822" cy="28.5764" fill="#F1F1F1" rx="100.8822" ry="22.5764" style="stroke:#181818;stroke-width:0.5;"/><text fill="#000000" font-family="sans-serif" font-size="14" lengthAdjust="spacing" textLength="166" x="290.3822" y="31.4231">Формирование счетов</text></g><g id="elem_Учет оплат"><ellipse cx="373.613" cy="101.6226" fill="#F1F1F1" rx="66.113" ry="15.6226" style="stroke:#181818;stroke-width:0.5;"/><text fill="#000000" font-family="sans-serif" font-size="14" lengthAdjust="spacing" textLength="82" x="329.613" y="105.3702">Учет оплат</text></g><!--MD5=[fd2b0122b570acb2c4e89d16f77fa694]
link Пациент to Регистрация в системе--><g id="link_Пациент_Регистрация в системе"><path d="M96.63,438.5 C135.69,438.5 204.76,438.5 264.02,438.5 " fill="none" id="Пациент-to-Регистрация в системе" style="stroke:#181818;stroke-width:1.0;"/><polygon fill="#181818" points="269.35,438.5,260.35,434.5,264.35,438.5,260.35,442.5,269.35,438.5" style="stroke:#181818;stroke-width:1.0;"/></g><!--MD5=[ad8902655195599a8a1c899f8d080166]
link Пациент to Просмотр результатов анализов--><g id="link_Пациент_Просмотр результатов анализов"><path d="M96.65,429.13 C113.35,424.14 134.28,417.93 153,412.5 C196.13,400 244.11,386.41 284.19,375.15 " fill="none" id="Пациент-to-Просмотр результатов анализов" style="stroke:#181818;stroke-width:1.0;"/><polygon fill="#181818" points="289.04,373.79,279.2912,372.3895,284.2286,375.1504,281.4678,380.0878,289.04,373.79" style="stroke:#181818;stroke-width:1.0;"/></g><!--MD5=[7659a9ecd119f814fcb96acbcb9761eb]
link Пациент to Запрос на проведение анализов--><g id="link_Пациент_Запрос на проведение анализов"><path d="M96.58,465.76 C112.41,478.12 132.59,491.69 153,499.5 C178.91,509.42 207.68,515.89 235.63,520.07 " fill="none" id="Пациент-to-Запрос на проведение анализов" style="stroke:#181818;stroke-width:1.0;"/><polygon fill="#181818" points="240.84,520.82,232.5025,515.5773,235.8911,520.1069,231.3615,523.4955,240.84,520.82" style="stroke:#181818;stroke-width:1.0;"/></g><!--MD5=[ae8d52696c07cb5ccb3bac4eb55c4732]
link Лаборант to Прием биоматериала--><g id="link_Лаборант_Прием биоматериала"><path d="M100.6,759.54 C116.49,763.26 135.58,767.23 153,769.5 C191.55,774.53 234.2,777.14 271.57,778.46 " fill="none" id="Лаборант-to-Прием биоматериала" style="stroke:#181818;stroke-width:1.0;"/><polygon fill="#181818" points="276.57,778.63,267.7123,774.324,271.5729,778.4587,267.4382,782.3193,276.57,778.63" style="stroke:#181818;stroke-width:1.0;"/></g><!--MD5=[eef72580d643f13e2693237a16b9dce3]
link Лаборант to Проведение анализов--><g id="link_Лаборант_Проведение анализов"><path d="M100.54,745.93 C129.27,741.98 170.93,735.76 207,728.5 C238.96,722.07 274.05,713.58 303.66,706 " fill="none" id="Лаборант-to-Проведение анализов" style="stroke:#181818;stroke-width:1.0;"/><polygon fill="#181818" points="308.74,704.7,299.0282,703.0628,303.8969,705.9429,301.0168,710.8117,308.74,704.7" style="stroke:#181818;stroke-width:1.0;"/></g><!--MD5=[4c26569eb4c323363a2c1f9e2c34dd7e]
link Лаборант to Ввод результатов--><g id="link_Лаборант_Ввод результатов"><path d="M100.75,725.37 C134.39,702.38 187.17,668.78 237,647.5 C258.47,638.33 282.84,630.84 304.93,625.06 " fill="none" id="Лаборант-to-Ввод результатов" style="stroke:#181818;stroke-width:1.0;"/><polygon fill="#181818" points="309.91,623.78,300.1982,622.1428,305.0669,625.0229,302.1868,629.8917,309.91,623.78" style="stroke:#181818;stroke-width:1.0;"/></g><!--MD5=[fd4158abd8fcd9b5a18151fb85239a72]
link Врач to Назначение анализов--><g id="link_Врач_Назначение анализов"><path d="M82.26,232 C99.87,228.34 128.37,222.45 153,217.5 C199.74,208.12 252.12,197.84 294,189.69 " fill="none" id="Врач-to-Назначение анализов" style="stroke:#181818;stroke-width:1.0;"/><polygon fill="#181818" points="299.05,188.71,289.4501,186.5096,294.1427,189.6686,290.9838,194.3612,299.05,188.71" style="stroke:#181818;stroke-width:1.0;"/></g><!--MD5=[87c56f2854590837697b68f5ae8aaab1]
link Врач to Интерпретация результатов--><g id="link_Врач_Интерпретация результатов"><path d="M82.01,236.74 C113.99,239.13 186.97,244.6 251.78,249.46 " fill="none" id="Врач-to-Интерпретация результатов" style="stroke:#181818;stroke-width:1.0;"/><polygon fill="#181818" points="256.83,249.83,248.152,245.1724,251.8438,249.4585,247.5577,253.1503,256.83,249.83" style="stroke:#181818;stroke-width:1.0;"/></g><!--MD5=[2979c859c384e9ef9e1083a7b6e34656]
link Администратор to Управление пользователями--><g id="link_Администратор_Управление пользователями"><path d="M123.24,952.5 C157.79,952.5 203.12,952.5 245.63,952.5 " fill="none" id="Администратор-to-Управление пользователями" style="stroke:#181818;stroke-width:1.0;"/><polygon fill="#181818" points="250.8,952.5,241.8,948.5,245.8,952.5,241.8,956.5,250.8,952.5" style="stroke:#181818;stroke-width:1.0;"/></g><!--MD5=[2227079c77d653823f89e0bd4ae2a08f]
link Администратор to Управление услугами--><g id="link_Администратор_Управление услугами"><path d="M123.24,968.3 C175.51,982.6 252.44,1003.65 306.99,1018.57 " fill="none" id="Администратор-to-Управление услугами" style="stroke:#181818;stroke-width:1.0;"/><polygon fill="#181818" points="311.86,1019.91,304.2265,1013.6867,307.0355,1018.5968,302.1254,1021.4059,311.86,1019.91" style="stroke:#181818;stroke-width:1.0;"/></g><!--MD5=[ecce4e7265597868da7a72e21d60c395]
link Администратор to Управление оборудованием--><g id="link_Администратор_Управление оборудованием"><path d="M123.37,935.22 C133.25,932.3 143.42,929.3 153,926.5 C199.81,912.83 252.31,897.75 294.23,885.77 " fill="none" id="Администратор-to-Управление оборудованием" style="stroke:#181818;stroke-width:1.0;"/><polygon fill="#181818" points="299.28,884.33,289.5285,882.9487,294.4713,885.6998,291.7202,890.6427,299.28,884.33" style="stroke:#181818;stroke-width:1.0;"/></g><!--MD5=[c43e9dae1f93402044a3d83f93488689]
link Бухгалтер to Формирование счетов--><g id="link_Бухгалтер_Формирование счетов"><path d="M102.07,59.75 C117.73,57.36 136.25,54.66 153,52.5 C193.21,47.32 237.65,42.32 275.97,38.24 " fill="none" id="Бухгалтер-to-Формирование счетов" style="stroke:#181818;stroke-width:1.0;"/><polygon fill="#181818" points="281.1,37.7,271.7285,34.6711,276.1279,38.2271,272.5719,42.6265,281.1,37.7" style="stroke:#181818;stroke-width:1.0;"/></g><!--MD5=[e14c635ca6e717a60bc9c838e79fbc0a]
link Бухгалтер to Учет оплат--><g id="link_Бухгалтер_Учет оплат"><path d="M102.23,69.81 C153.31,75.8 246.57,86.73 309.04,94.06 " fill="none" id="Бухгалтер-to-Учет оплат" style="stroke:#181818;stroke-width:1.0;"/><polygon fill="#181818" points="314.24,94.67,305.7573,89.6657,309.2729,94.0974,304.8411,97.613,314.24,94.67" style="stroke:#181818;stroke-width:1.0;"/></g><!--MD5=[793b7fe7612c6fc7b1b817406fd41a1c]
link Просмотр результатов анализов to Ввод результатов--><g id="link_Просмотр результатов анализов_Ввод результатов"><path d="M283.76,372.87 C267.23,379.46 250.84,387.86 237,398.5 C199.69,427.17 172.54,445.77 185.5,491 C197.4,532.55 202.3,547.73 237,573.5 C253.45,585.71 273.67,593.89 293.46,599.38 " fill="none" id="Просмотр результатов анализов-to-Ввод результатов" style="stroke:#181818;stroke-width:1.0;stroke-dasharray:7.0,7.0;"/><polygon fill="#181818" points="298.48,600.71,290.8123,594.5289,293.6484,599.4235,288.7538,602.2596,298.48,600.71" style="stroke:#181818;stroke-width:1.0;"/><text fill="#000000" font-family="sans-serif" font-size="13" lengthAdjust="spacing" textLength="51" x="154.5" y="487.0669">extends</text></g><!--MD5=[08abab35f6258c28932c86edfb83baa2]
link Проведение анализов to Управление оборудованием--><g id="link_Проведение анализов_Управление оборудованием"><path d="M291.22,674.72 C253.24,673.8 210.93,680.79 185,710 C149.23,750.29 195.29,785.4 237,819.5 C249.58,829.78 264.61,837.68 280.03,843.74 " fill="none" id="Проведение анализов-to-Управление оборудованием" style="stroke:#181818;stroke-width:1.0;stroke-dasharray:7.0,7.0;"/><polygon fill="#181818" points="284.83,845.57,277.8445,838.6272,280.1578,843.7894,274.9956,846.1027,284.83,845.57" style="stroke:#181818;stroke-width:1.0;"/><text fill="#000000" font-family="sans-serif" font-size="13" lengthAdjust="spacing" textLength="52" x="154" y="723.0669">includes</text></g><!--MD5=[0d28daf7a1ce4050910d0ccb39858879]
@startuml
left to right direction
actor Пациент
actor Лаборант
actor Администратор
actor Врач
actor Бухгалтер

  Пациент - -> (Регистрация в системе)
  Пациент - -> (Просмотр результатов анализов)
  Пациент - -> (Запрос на проведение анализов)
  
  Лаборант - -> (Прием биоматериала)
  Лаборант - -> (Проведение анализов)
  Лаборант - -> (Ввод результатов)
  
  Врач - -> (Назначение анализов)
  Врач - -> (Интерпретация результатов)
  
  Администратор - -> (Управление пользователями)
  Администратор - -> (Управление услугами)
  Администратор - -> (Управление оборудованием)
  
  Бухгалтер - -> (Формирование счетов)
  Бухгалтер - -> (Учет оплат)

(Просмотр результатов анализов) .> (Ввод результатов) : extends
(Проведение анализов) .> (Управление оборудованием) : includes
@enduml

PlantUML version 1.2022.7(Mon Aug 22 17:01:30 UTC 2022)
(GPL source distribution)
Java Runtime: OpenJDK Runtime Environment
JVM: OpenJDK 64-Bit Server VM
Default Encoding: UTF-8
Language: en
Country: null
--></g></svg>