<?xml version="1.0" encoding="UTF-8" standalone="no"?><svg xmlns="http://www.w3.org/2000/svg" xmlns:xlink="http://www.w3.org/1999/xlink" contentStyleType="text/css" height="966px" preserveAspectRatio="none" style="width:488px;height:966px;background:#FFFFFF;" version="1.1" viewBox="0 0 488 966" width="488px" zoomAndPan="magnify"><defs/><g><!--MD5=[9dd4eaa2771a2ff8dbee15cc1e732cab]
class Patient--><g id="elem_Patient"><rect codeLine="1" fill="#F1F1F1" height="178.375" id="Patient" rx="2.5" ry="2.5" style="stroke:#181818;stroke-width:0.5;" width="236" x="126.5" y="7"/><ellipse cx="216.25" cy="23" fill="#ADD1B2" rx="11" ry="11" style="stroke:#181818;stroke-width:1.0;"/><path d="M219.2188,28.6406 Q218.6406,28.9375 218,29.0781 Q217.3594,29.2344 216.6563,29.2344 Q214.1563,29.2344 212.8281,27.5938 Q211.5156,25.9375 211.5156,22.8125 Q211.5156,19.6875 212.8281,18.0313 Q214.1563,16.375 216.6563,16.375 Q217.3594,16.375 218,16.5313 Q218.6563,16.6875 219.2188,16.9844 L219.2188,19.7031 Q218.5938,19.125 218,18.8594 Q217.4063,18.5781 216.7813,18.5781 Q215.4375,18.5781 214.75,19.6563 Q214.0625,20.7188 214.0625,22.8125 Q214.0625,24.9063 214.75,25.9844 Q215.4375,27.0469 216.7813,27.0469 Q217.4063,27.0469 218,26.7813 Q218.5938,26.5 219.2188,25.9219 L219.2188,28.6406 Z " fill="#000000"/><text fill="#000000" font-family="sans-serif" font-size="14" lengthAdjust="spacing" textLength="48" x="236.75" y="27.8467">Patient</text><line style="stroke:#181818;stroke-width:0.5;" x1="127.5" x2="361.5" y1="39" y2="39"/><ellipse cx="137.5" cy="52.6484" fill="none" rx="3" ry="3" style="stroke:#038048;stroke-width:1.0;"/><text fill="#000000" font-family="sans-serif" font-size="14" lengthAdjust="spacing" textLength="86" x="146.5" y="55.9951">PatientId: int</text><ellipse cx="137.5" cy="68.9453" fill="none" rx="3" ry="3" style="stroke:#038048;stroke-width:1.0;"/><text fill="#000000" font-family="sans-serif" font-size="14" lengthAdjust="spacing" textLength="85" x="146.5" y="72.292">Login: string</text><ellipse cx="137.5" cy="85.2422" fill="none" rx="3" ry="3" style="stroke:#038048;stroke-width:1.0;"/><text fill="#000000" font-family="sans-serif" font-size="14" lengthAdjust="spacing" textLength="115" x="146.5" y="88.5889">Password: string</text><ellipse cx="137.5" cy="101.5391" fill="none" rx="3" ry="3" style="stroke:#038048;stroke-width:1.0;"/><text fill="#000000" font-family="sans-serif" font-size="14" lengthAdjust="spacing" textLength="117" x="146.5" y="104.8857">FirstName: string</text><ellipse cx="137.5" cy="117.8359" fill="none" rx="3" ry="3" style="stroke:#038048;stroke-width:1.0;"/><text fill="#000000" font-family="sans-serif" font-size="14" lengthAdjust="spacing" textLength="116" x="146.5" y="121.1826">LastName: string</text><ellipse cx="137.5" cy="134.1328" fill="none" rx="3" ry="3" style="stroke:#038048;stroke-width:1.0;"/><text fill="#000000" font-family="sans-serif" font-size="14" lengthAdjust="spacing" textLength="105" x="146.5" y="137.4795">BirthDate: date</text><ellipse cx="137.5" cy="150.4297" fill="none" rx="3" ry="3" style="stroke:#038048;stroke-width:1.0;"/><text fill="#000000" font-family="sans-serif" font-size="14" lengthAdjust="spacing" textLength="210" x="146.5" y="153.7764">InsurancePolicyNumber: string</text><ellipse cx="137.5" cy="166.7266" fill="none" rx="3" ry="3" style="stroke:#038048;stroke-width:1.0;"/><text fill="#000000" font-family="sans-serif" font-size="14" lengthAdjust="spacing" textLength="135" x="146.5" y="170.0732">IsArchived: boolean</text><line style="stroke:#181818;stroke-width:0.5;" x1="127.5" x2="361.5" y1="177.375" y2="177.375"/></g><!--MD5=[30be5dc48699cab2c58ad157dbf4f7cd]
class Biomaterial--><g id="elem_Biomaterial"><rect codeLine="12" fill="#F1F1F1" height="145.7813" id="Biomaterial" rx="2.5" ry="2.5" style="stroke:#181818;stroke-width:0.5;" width="231" x="7" y="245"/><ellipse cx="80.25" cy="261" fill="#ADD1B2" rx="11" ry="11" style="stroke:#181818;stroke-width:1.0;"/><path d="M83.2188,266.6406 Q82.6406,266.9375 82,267.0781 Q81.3594,267.2344 80.6563,267.2344 Q78.1563,267.2344 76.8281,265.5938 Q75.5156,263.9375 75.5156,260.8125 Q75.5156,257.6875 76.8281,256.0313 Q78.1563,254.375 80.6563,254.375 Q81.3594,254.375 82,254.5313 Q82.6563,254.6875 83.2188,254.9844 L83.2188,257.7031 Q82.5938,257.125 82,256.8594 Q81.4063,256.5781 80.7813,256.5781 Q79.4375,256.5781 78.75,257.6563 Q78.0625,258.7188 78.0625,260.8125 Q78.0625,262.9063 78.75,263.9844 Q79.4375,265.0469 80.7813,265.0469 Q81.4063,265.0469 82,264.7813 Q82.5938,264.5 83.2188,263.9219 L83.2188,266.6406 Z " fill="#000000"/><text fill="#000000" font-family="sans-serif" font-size="14" lengthAdjust="spacing" textLength="76" x="100.75" y="265.8467">Biomaterial</text><line style="stroke:#181818;stroke-width:0.5;" x1="8" x2="237" y1="277" y2="277"/><ellipse cx="18" cy="290.6484" fill="none" rx="3" ry="3" style="stroke:#038048;stroke-width:1.0;"/><text fill="#000000" font-family="sans-serif" font-size="14" lengthAdjust="spacing" textLength="114" x="27" y="293.9951">BiomaterialId: int</text><ellipse cx="18" cy="306.9453" fill="none" rx="3" ry="3" style="stroke:#038048;stroke-width:1.0;"/><text fill="#000000" font-family="sans-serif" font-size="14" lengthAdjust="spacing" textLength="106" x="27" y="310.292">Barcode: string</text><ellipse cx="18" cy="323.2422" fill="none" rx="3" ry="3" style="stroke:#038048;stroke-width:1.0;"/><text fill="#000000" font-family="sans-serif" font-size="14" lengthAdjust="spacing" textLength="82" x="27" y="326.5889">Type: string</text><ellipse cx="18" cy="339.5391" fill="none" rx="3" ry="3" style="stroke:#038048;stroke-width:1.0;"/><text fill="#000000" font-family="sans-serif" font-size="14" lengthAdjust="spacing" textLength="92" x="27" y="342.8857">Status: string</text><ellipse cx="18" cy="355.8359" fill="none" rx="3" ry="3" style="stroke:#038048;stroke-width:1.0;"/><text fill="#000000" font-family="sans-serif" font-size="14" lengthAdjust="spacing" textLength="205" x="27" y="359.1826">CollectionDateTime: datetime</text><ellipse cx="18" cy="372.1328" fill="none" rx="3" ry="3" style="stroke:#038048;stroke-width:1.0;"/><text fill="#000000" font-family="sans-serif" font-size="14" lengthAdjust="spacing" textLength="135" x="27" y="375.4795">IsArchived: boolean</text><line style="stroke:#181818;stroke-width:0.5;" x1="8" x2="237" y1="382.7813" y2="382.7813"/></g><!--MD5=[cf4d6237fcae255cd2e1656cf84a30e2]
class Order--><g id="elem_Order"><rect codeLine="21" fill="#F1F1F1" height="129.4844" id="Order" rx="2.5" ry="2.5" style="stroke:#181818;stroke-width:0.5;" width="187" x="273" y="253.5"/><ellipse cx="342.75" cy="269.5" fill="#ADD1B2" rx="11" ry="11" style="stroke:#181818;stroke-width:1.0;"/><path d="M345.7188,275.1406 Q345.1406,275.4375 344.5,275.5781 Q343.8594,275.7344 343.1563,275.7344 Q340.6563,275.7344 339.3281,274.0938 Q338.0156,272.4375 338.0156,269.3125 Q338.0156,266.1875 339.3281,264.5313 Q340.6563,262.875 343.1563,262.875 Q343.8594,262.875 344.5,263.0313 Q345.1563,263.1875 345.7188,263.4844 L345.7188,266.2031 Q345.0938,265.625 344.5,265.3594 Q343.9063,265.0781 343.2813,265.0781 Q341.9375,265.0781 341.25,266.1563 Q340.5625,267.2188 340.5625,269.3125 Q340.5625,271.4063 341.25,272.4844 Q341.9375,273.5469 343.2813,273.5469 Q343.9063,273.5469 344.5,273.2813 Q345.0938,273 345.7188,272.4219 L345.7188,275.1406 Z " fill="#000000"/><text fill="#000000" font-family="sans-serif" font-size="14" lengthAdjust="spacing" textLength="39" x="363.25" y="274.3467">Order</text><line style="stroke:#181818;stroke-width:0.5;" x1="274" x2="459" y1="285.5" y2="285.5"/><ellipse cx="284" cy="299.1484" fill="none" rx="3" ry="3" style="stroke:#038048;stroke-width:1.0;"/><text fill="#000000" font-family="sans-serif" font-size="14" lengthAdjust="spacing" textLength="77" x="293" y="302.4951">OrderId: int</text><ellipse cx="284" cy="315.4453" fill="none" rx="3" ry="3" style="stroke:#038048;stroke-width:1.0;"/><text fill="#000000" font-family="sans-serif" font-size="14" lengthAdjust="spacing" textLength="106" x="293" y="318.792">Barcode: string</text><ellipse cx="284" cy="331.7422" fill="none" rx="3" ry="3" style="stroke:#038048;stroke-width:1.0;"/><text fill="#000000" font-family="sans-serif" font-size="14" lengthAdjust="spacing" textLength="161" x="293" y="335.0889">CreationDate: datetime</text><ellipse cx="284" cy="348.0391" fill="none" rx="3" ry="3" style="stroke:#038048;stroke-width:1.0;"/><text fill="#000000" font-family="sans-serif" font-size="14" lengthAdjust="spacing" textLength="92" x="293" y="351.3857">Status: string</text><ellipse cx="284" cy="364.3359" fill="none" rx="3" ry="3" style="stroke:#038048;stroke-width:1.0;"/><text fill="#000000" font-family="sans-serif" font-size="14" lengthAdjust="spacing" textLength="135" x="293" y="367.6826">IsArchived: boolean</text><line style="stroke:#181818;stroke-width:0.5;" x1="274" x2="459" y1="374.9844" y2="374.9844"/></g><!--MD5=[dbb8b4f13c7b21394f9d757e58732f45]
class Service--><g id="elem_Service"><rect codeLine="29" fill="#F1F1F1" height="145.7813" id="Service" rx="2.5" ry="2.5" style="stroke:#181818;stroke-width:0.5;" width="188" x="272.5" y="451"/><ellipse cx="337.25" cy="467" fill="#ADD1B2" rx="11" ry="11" style="stroke:#181818;stroke-width:1.0;"/><path d="M340.2188,472.6406 Q339.6406,472.9375 339,473.0781 Q338.3594,473.2344 337.6563,473.2344 Q335.1563,473.2344 333.8281,471.5938 Q332.5156,469.9375 332.5156,466.8125 Q332.5156,463.6875 333.8281,462.0313 Q335.1563,460.375 337.6563,460.375 Q338.3594,460.375 339,460.5313 Q339.6563,460.6875 340.2188,460.9844 L340.2188,463.7031 Q339.5938,463.125 339,462.8594 Q338.4063,462.5781 337.7813,462.5781 Q336.4375,462.5781 335.75,463.6563 Q335.0625,464.7188 335.0625,466.8125 Q335.0625,468.9063 335.75,469.9844 Q336.4375,471.0469 337.7813,471.0469 Q338.4063,471.0469 339,470.7813 Q339.5938,470.5 340.2188,469.9219 L340.2188,472.6406 Z " fill="#000000"/><text fill="#000000" font-family="sans-serif" font-size="14" lengthAdjust="spacing" textLength="50" x="357.75" y="471.8467">Service</text><line style="stroke:#181818;stroke-width:0.5;" x1="273.5" x2="459.5" y1="483" y2="483"/><ellipse cx="283.5" cy="496.6484" fill="none" rx="3" ry="3" style="stroke:#038048;stroke-width:1.0;"/><text fill="#000000" font-family="sans-serif" font-size="14" lengthAdjust="spacing" textLength="88" x="292.5" y="499.9951">ServiceId: int</text><ellipse cx="283.5" cy="512.9453" fill="none" rx="3" ry="3" style="stroke:#038048;stroke-width:1.0;"/><text fill="#000000" font-family="sans-serif" font-size="14" lengthAdjust="spacing" textLength="85" x="292.5" y="516.292">Code: string</text><ellipse cx="283.5" cy="529.2422" fill="none" rx="3" ry="3" style="stroke:#038048;stroke-width:1.0;"/><text fill="#000000" font-family="sans-serif" font-size="14" lengthAdjust="spacing" textLength="88" x="292.5" y="532.5889">Name: string</text><ellipse cx="283.5" cy="545.5391" fill="none" rx="3" ry="3" style="stroke:#038048;stroke-width:1.0;"/><text fill="#000000" font-family="sans-serif" font-size="14" lengthAdjust="spacing" textLength="96" x="292.5" y="548.8857">Price: decimal</text><ellipse cx="283.5" cy="561.8359" fill="none" rx="3" ry="3" style="stroke:#038048;stroke-width:1.0;"/><text fill="#000000" font-family="sans-serif" font-size="14" lengthAdjust="spacing" textLength="162" x="292.5" y="565.1826">ExecutionTimeDays: int</text><ellipse cx="283.5" cy="578.1328" fill="none" rx="3" ry="3" style="stroke:#038048;stroke-width:1.0;"/><text fill="#000000" font-family="sans-serif" font-size="14" lengthAdjust="spacing" textLength="135" x="292.5" y="581.4795">IsArchived: boolean</text><line style="stroke:#181818;stroke-width:0.5;" x1="273.5" x2="459.5" y1="588.7813" y2="588.7813"/></g><!--MD5=[16a12f0a3fce49e84894ff28b9c80e57]
class Analyzer--><g id="elem_Analyzer"><rect codeLine="38" fill="#F1F1F1" height="129.4844" id="Analyzer" rx="2.5" ry="2.5" style="stroke:#181818;stroke-width:0.5;" width="229" x="252" y="830"/><ellipse cx="333.25" cy="846" fill="#ADD1B2" rx="11" ry="11" style="stroke:#181818;stroke-width:1.0;"/><path d="M336.2188,851.6406 Q335.6406,851.9375 335,852.0781 Q334.3594,852.2344 333.6563,852.2344 Q331.1563,852.2344 329.8281,850.5938 Q328.5156,848.9375 328.5156,845.8125 Q328.5156,842.6875 329.8281,841.0313 Q331.1563,839.375 333.6563,839.375 Q334.3594,839.375 335,839.5313 Q335.6563,839.6875 336.2188,839.9844 L336.2188,842.7031 Q335.5938,842.125 335,841.8594 Q334.4063,841.5781 333.7813,841.5781 Q332.4375,841.5781 331.75,842.6563 Q331.0625,843.7188 331.0625,845.8125 Q331.0625,847.9063 331.75,848.9844 Q332.4375,850.0469 333.7813,850.0469 Q334.4063,850.0469 335,849.7813 Q335.5938,849.5 336.2188,848.9219 L336.2188,851.6406 Z " fill="#000000"/><text fill="#000000" font-family="sans-serif" font-size="14" lengthAdjust="spacing" textLength="58" x="353.75" y="850.8467">Analyzer</text><line style="stroke:#181818;stroke-width:0.5;" x1="253" x2="480" y1="862" y2="862"/><ellipse cx="263" cy="875.6484" fill="none" rx="3" ry="3" style="stroke:#038048;stroke-width:1.0;"/><text fill="#000000" font-family="sans-serif" font-size="14" lengthAdjust="spacing" textLength="96" x="272" y="878.9951">AnalyzerId: int</text><ellipse cx="263" cy="891.9453" fill="none" rx="3" ry="3" style="stroke:#038048;stroke-width:1.0;"/><text fill="#000000" font-family="sans-serif" font-size="14" lengthAdjust="spacing" textLength="88" x="272" y="895.292">Name: string</text><ellipse cx="263" cy="908.2422" fill="none" rx="3" ry="3" style="stroke:#038048;stroke-width:1.0;"/><text fill="#000000" font-family="sans-serif" font-size="14" lengthAdjust="spacing" textLength="90" x="272" y="911.5889">Model: string</text><ellipse cx="263" cy="924.5391" fill="none" rx="3" ry="3" style="stroke:#038048;stroke-width:1.0;"/><text fill="#000000" font-family="sans-serif" font-size="14" lengthAdjust="spacing" textLength="203" x="272" y="927.8857">LastCalibrationDate: datetime</text><ellipse cx="263" cy="940.8359" fill="none" rx="3" ry="3" style="stroke:#038048;stroke-width:1.0;"/><text fill="#000000" font-family="sans-serif" font-size="14" lengthAdjust="spacing" textLength="135" x="272" y="944.1826">IsArchived: boolean</text><line style="stroke:#181818;stroke-width:0.5;" x1="253" x2="480" y1="951.4844" y2="951.4844"/></g><!--MD5=[22336f4f3522666243bce15235240fc9]
class PerformedService--><g id="elem_PerformedService"><rect codeLine="46" fill="#F1F1F1" height="113.1875" id="PerformedService" rx="2.5" ry="2.5" style="stroke:#181818;stroke-width:0.5;" width="201" x="266" y="657"/><ellipse cx="302.15" cy="673" fill="#ADD1B2" rx="11" ry="11" style="stroke:#181818;stroke-width:1.0;"/><path d="M305.1188,678.6406 Q304.5406,678.9375 303.9,679.0781 Q303.2594,679.2344 302.5563,679.2344 Q300.0563,679.2344 298.7281,677.5938 Q297.4156,675.9375 297.4156,672.8125 Q297.4156,669.6875 298.7281,668.0313 Q300.0563,666.375 302.5563,666.375 Q303.2594,666.375 303.9,666.5313 Q304.5563,666.6875 305.1188,666.9844 L305.1188,669.7031 Q304.4938,669.125 303.9,668.8594 Q303.3063,668.5781 302.6813,668.5781 Q301.3375,668.5781 300.65,669.6563 Q299.9625,670.7188 299.9625,672.8125 Q299.9625,674.9063 300.65,675.9844 Q301.3375,677.0469 302.6813,677.0469 Q303.3063,677.0469 303.9,676.7813 Q304.4938,676.5 305.1188,675.9219 L305.1188,678.6406 Z " fill="#000000"/><text fill="#000000" font-family="sans-serif" font-size="14" lengthAdjust="spacing" textLength="122" x="320.85" y="677.8467">PerformedService</text><line style="stroke:#181818;stroke-width:0.5;" x1="267" x2="466" y1="689" y2="689"/><ellipse cx="277" cy="702.6484" fill="none" rx="3" ry="3" style="stroke:#038048;stroke-width:1.0;"/><text fill="#000000" font-family="sans-serif" font-size="14" lengthAdjust="spacing" textLength="160" x="286" y="705.9951">PerformedServiceId: int</text><ellipse cx="277" cy="718.9453" fill="none" rx="3" ry="3" style="stroke:#038048;stroke-width:1.0;"/><text fill="#000000" font-family="sans-serif" font-size="14" lengthAdjust="spacing" textLength="175" x="286" y="722.292">PerformedDate: datetime</text><ellipse cx="277" cy="735.2422" fill="none" rx="3" ry="3" style="stroke:#038048;stroke-width:1.0;"/><text fill="#000000" font-family="sans-serif" font-size="14" lengthAdjust="spacing" textLength="92" x="286" y="738.5889">Result: string</text><ellipse cx="277" cy="751.5391" fill="none" rx="3" ry="3" style="stroke:#038048;stroke-width:1.0;"/><text fill="#000000" font-family="sans-serif" font-size="14" lengthAdjust="spacing" textLength="135" x="286" y="754.8857">IsArchived: boolean</text><line style="stroke:#181818;stroke-width:0.5;" x1="267" x2="466" y1="762.1875" y2="762.1875"/></g><!--MD5=[565c79cbca1ec16a04907cfa0483606c]
link Patient to Biomaterial--><g id="link_Patient_Biomaterial"><path codeLine="53" d="M195.58,185.21 C184.58,205.06 173.03,225.89 162.44,244.98 " fill="none" id="Patient-Biomaterial" style="stroke:#181818;stroke-width:1.0;"/><text fill="#000000" font-family="sans-serif" font-size="13" lengthAdjust="spacing" textLength="8" x="183.0322" y="205.5775">1</text><text fill="#000000" font-family="sans-serif" font-size="13" lengthAdjust="spacing" textLength="23" x="142.3729" y="233.7614">0..*</text></g><!--MD5=[c7df7b6bacecc147449bd078ab6b1b4f]
link Patient to Order--><g id="link_Patient_Order"><path codeLine="54" d="M293.42,185.21 C306.08,208.05 319.47,232.18 331.27,253.48 " fill="none" id="Patient-Order" style="stroke:#181818;stroke-width:1.0;"/><text fill="#000000" font-family="sans-serif" font-size="13" lengthAdjust="spacing" textLength="8" x="289.2803" y="205.5775">1</text><text fill="#000000" font-family="sans-serif" font-size="13" lengthAdjust="spacing" textLength="23" x="303.1589" y="242.6505">0..*</text></g><!--MD5=[7b97b12e128301e7595dd38f14ea1719]
link Order to Service--><g id="link_Order_Service"><path codeLine="55" d="M366.5,382.71 C366.5,404.34 366.5,428.65 366.5,450.89 " fill="none" id="Order-Service" style="stroke:#181818;stroke-width:1.0;"/><text fill="#000000" font-family="sans-serif" font-size="13" lengthAdjust="spacing" textLength="8" x="358.0375" y="403.1059">1</text><text fill="#000000" font-family="sans-serif" font-size="13" lengthAdjust="spacing" textLength="23" x="342.368" y="440.0392">1..*</text></g><!--MD5=[0fc8a34f3227e2be45f2431225714d78]
link Service to PerformedService--><g id="link_Service_PerformedService"><path codeLine="56" d="M366.5,597.22 C366.5,617.03 366.5,638.19 366.5,656.91 " fill="none" id="Service-PerformedService" style="stroke:#181818;stroke-width:1.0;"/><text fill="#000000" font-family="sans-serif" font-size="13" lengthAdjust="spacing" textLength="8" x="358.1313" y="616.7445">1</text><text fill="#000000" font-family="sans-serif" font-size="13" lengthAdjust="spacing" textLength="23" x="342.0266" y="645.7619">0..*</text></g><!--MD5=[c684d17d1d8efd99ae71cca321b3a256]
link PerformedService to Analyzer--><g id="link_PerformedService_Analyzer"><path codeLine="57" d="M366.5,770.16 C366.5,789.04 366.5,810.28 366.5,829.75 " fill="none" id="PerformedService-Analyzer" style="stroke:#181818;stroke-width:1.0;"/><text fill="#000000" font-family="sans-serif" font-size="13" lengthAdjust="spacing" textLength="8" x="357.9875" y="790.4439">1</text><text fill="#000000" font-family="sans-serif" font-size="13" lengthAdjust="spacing" textLength="8" x="358.0625" y="818.8953">1</text></g><!--MD5=[4872a2ce9abf0447f2be4b2745610512]
@startuml
class Patient {
  + PatientId: int
  + Login: string
  + Password: string
  + FirstName: string
  + LastName: string
  + BirthDate: date
  + InsurancePolicyNumber: string
  + IsArchived: boolean
}

class Biomaterial {
  + BiomaterialId: int
  + Barcode: string
  + Type: string
  + Status: string
  + CollectionDateTime: datetime
  + IsArchived: boolean
}

class Order {
  + OrderId: int
  + Barcode: string
  + CreationDate: datetime
  + Status: string
  + IsArchived: boolean
}

class Service {
  + ServiceId: int
  + Code: string
  + Name: string
  + Price: decimal
  + ExecutionTimeDays: int
  + IsArchived: boolean
}

class Analyzer {
  + AnalyzerId: int
  + Name: string
  + Model: string
  + LastCalibrationDate: datetime
  + IsArchived: boolean
}

class PerformedService {
  + PerformedServiceId: int
  + PerformedDate: datetime
  + Result: string
  + IsArchived: boolean
}

Patient "1" - - "0..*" Biomaterial
Patient "1" - - "0..*" Order
Order "1" - - "1..*" Service
Service "1" - - "0..*" PerformedService
PerformedService "1" - - "1" Analyzer
@enduml

PlantUML version 1.2022.7(Mon Aug 22 17:01:30 UTC 2022)
(GPL source distribution)
Java Runtime: OpenJDK Runtime Environment
JVM: OpenJDK 64-Bit Server VM
Default Encoding: UTF-8
Language: en
Country: null
--></g></svg>