<?xml version="1.0" encoding="UTF-8" standalone="no"?><svg xmlns="http://www.w3.org/2000/svg" xmlns:xlink="http://www.w3.org/1999/xlink" contentStyleType="text/css" height="531px" preserveAspectRatio="none" style="width:821px;height:531px;background:#FFFFFF;" version="1.1" viewBox="0 0 821 531" width="821px" zoomAndPan="magnify"><defs/><g><rect fill="#FFFFFF" height="320.4609" style="stroke:#181818;stroke-width:1.0;" width="10" x="221" y="112.4297"/><rect fill="#FFFFFF" height="87.3984" style="stroke:#181818;stroke-width:1.0;" width="10" x="550" y="141.5625"/><rect fill="#FFFFFF" height="145.6641" style="stroke:#181818;stroke-width:1.0;" width="10" x="550" y="258.0938"/><rect fill="#FFFFFF" height="29.1328" style="stroke:#181818;stroke-width:1.0;" width="10" x="766" y="170.6953"/><rect fill="#FFFFFF" height="29.1328" style="stroke:#181818;stroke-width:1.0;" width="10" x="766" y="287.2266"/><rect fill="#FFFFFF" height="29.1328" style="stroke:#181818;stroke-width:1.0;" width="10" x="766" y="345.4922"/><line style="stroke:#181818;stroke-width:0.5;stroke-dasharray:5.0,5.0;" x1="40" x2="40" y1="81.2969" y2="450.8906"/><line style="stroke:#181818;stroke-width:0.5;stroke-dasharray:5.0,5.0;" x1="226" x2="226" y1="81.2969" y2="450.8906"/><line style="stroke:#181818;stroke-width:0.5;stroke-dasharray:5.0,5.0;" x1="554.5" x2="554.5" y1="81.2969" y2="450.8906"/><line style="stroke:#181818;stroke-width:0.5;stroke-dasharray:5.0,5.0;" x1="771" x2="771" y1="81.2969" y2="450.8906"/><text fill="#000000" font-family="sans-serif" font-size="14" lengthAdjust="spacing" textLength="64" x="5" y="77.9951">Пациент</text><ellipse cx="40" cy="13.5" fill="#E2E2F0" rx="8" ry="8" style="stroke:#181818;stroke-width:0.5;"/><path d="M40,21.5 L40,48.5 M27,29.5 L53,29.5 M40,48.5 L27,63.5 M40,48.5 L53,63.5 " fill="none" style="stroke:#181818;stroke-width:0.5;"/><text fill="#000000" font-family="sans-serif" font-size="14" lengthAdjust="spacing" textLength="64" x="5" y="462.8857">Пациент</text><ellipse cx="40" cy="474.6875" fill="#E2E2F0" rx="8" ry="8" style="stroke:#181818;stroke-width:0.5;"/><path d="M40,482.6875 L40,509.6875 M27,490.6875 L53,490.6875 M40,509.6875 L27,524.6875 M40,509.6875 L53,524.6875 " fill="none" style="stroke:#181818;stroke-width:0.5;"/><rect fill="#E2E2F0" height="30.2969" rx="2.5" ry="2.5" style="stroke:#181818;stroke-width:0.5;" width="86" x="183" y="50"/><text fill="#000000" font-family="sans-serif" font-size="14" lengthAdjust="spacing" textLength="72" x="190" y="69.9951">Лаборант</text><rect fill="#E2E2F0" height="30.2969" rx="2.5" ry="2.5" style="stroke:#181818;stroke-width:0.5;" width="86" x="183" y="449.8906"/><text fill="#000000" font-family="sans-serif" font-size="14" lengthAdjust="spacing" textLength="72" x="190" y="469.8857">Лаборант</text><rect fill="#E2E2F0" height="30.2969" rx="2.5" ry="2.5" style="stroke:#181818;stroke-width:0.5;" width="77" x="516.5" y="50"/><text fill="#000000" font-family="sans-serif" font-size="14" lengthAdjust="spacing" textLength="63" x="523.5" y="69.9951">Система</text><rect fill="#E2E2F0" height="30.2969" rx="2.5" ry="2.5" style="stroke:#181818;stroke-width:0.5;" width="77" x="516.5" y="449.8906"/><text fill="#000000" font-family="sans-serif" font-size="14" lengthAdjust="spacing" textLength="63" x="523.5" y="469.8857">Система</text><text fill="#000000" font-family="sans-serif" font-size="14" lengthAdjust="spacing" textLength="92" x="722" y="77.9951">База данных</text><path d="M753,29 C753,19 771,19 771,19 C771,19 789,19 789,29 L789,55 C789,65 771,65 771,65 C771,65 753,65 753,55 L753,29 " fill="#E2E2F0" style="stroke:#181818;stroke-width:1.5;"/><path d="M753,29 C753,39 771,39 771,39 C771,39 789,39 789,29 " fill="none" style="stroke:#181818;stroke-width:1.5;"/><text fill="#000000" font-family="sans-serif" font-size="14" lengthAdjust="spacing" textLength="92" x="722" y="462.8857">База данных</text><path d="M753,476.1875 C753,466.1875 771,466.1875 771,466.1875 C771,466.1875 789,466.1875 789,476.1875 L789,502.1875 C789,512.1875 771,512.1875 771,512.1875 C771,512.1875 753,512.1875 753,502.1875 L753,476.1875 " fill="#E2E2F0" style="stroke:#181818;stroke-width:1.5;"/><path d="M753,476.1875 C753,486.1875 771,486.1875 771,486.1875 C771,486.1875 789,486.1875 789,476.1875 " fill="none" style="stroke:#181818;stroke-width:1.5;"/><rect fill="#FFFFFF" height="320.4609" style="stroke:#181818;stroke-width:1.0;" width="10" x="221" y="112.4297"/><rect fill="#FFFFFF" height="87.3984" style="stroke:#181818;stroke-width:1.0;" width="10" x="550" y="141.5625"/><rect fill="#FFFFFF" height="145.6641" style="stroke:#181818;stroke-width:1.0;" width="10" x="550" y="258.0938"/><rect fill="#FFFFFF" height="29.1328" style="stroke:#181818;stroke-width:1.0;" width="10" x="766" y="170.6953"/><rect fill="#FFFFFF" height="29.1328" style="stroke:#181818;stroke-width:1.0;" width="10" x="766" y="287.2266"/><rect fill="#FFFFFF" height="29.1328" style="stroke:#181818;stroke-width:1.0;" width="10" x="766" y="345.4922"/><polygon fill="#181818" points="209,108.4297,219,112.4297,209,116.4297,213,112.4297" style="stroke:#181818;stroke-width:1.0;"/><line style="stroke:#181818;stroke-width:1.0;" x1="40" x2="215" y1="112.4297" y2="112.4297"/><text fill="#000000" font-family="sans-serif" font-size="13" lengthAdjust="spacing" textLength="162" x="47" y="107.3638">Передает биоматериал</text><polygon fill="#181818" points="538,137.5625,548,141.5625,538,145.5625,542,141.5625" style="stroke:#181818;stroke-width:1.0;"/><line style="stroke:#181818;stroke-width:1.0;" x1="231" x2="544" y1="141.5625" y2="141.5625"/><text fill="#000000" font-family="sans-serif" font-size="13" lengthAdjust="spacing" textLength="300" x="238" y="136.4966">Запрос на создание записи о биоматериале</text><polygon fill="#181818" points="754,166.6953,764,170.6953,754,174.6953,758,170.6953" style="stroke:#181818;stroke-width:1.0;"/><line style="stroke:#181818;stroke-width:1.0;" x1="560" x2="760" y1="170.6953" y2="170.6953"/><text fill="#000000" font-family="sans-serif" font-size="13" lengthAdjust="spacing" textLength="163" x="567" y="165.6294">INSERT INTO Biomaterials</text><polygon fill="#181818" points="571,195.8281,561,199.8281,571,203.8281,567,199.8281" style="stroke:#181818;stroke-width:1.0;"/><line style="stroke:#181818;stroke-width:1.0;stroke-dasharray:2.0,2.0;" x1="565" x2="770" y1="199.8281" y2="199.8281"/><text fill="#000000" font-family="sans-serif" font-size="13" lengthAdjust="spacing" textLength="182" x="577" y="194.7622">Подтверждение создания</text><polygon fill="#181818" points="242,224.9609,232,228.9609,242,232.9609,238,228.9609" style="stroke:#181818;stroke-width:1.0;"/><line style="stroke:#181818;stroke-width:1.0;stroke-dasharray:2.0,2.0;" x1="236" x2="554" y1="228.9609" y2="228.9609"/><text fill="#000000" font-family="sans-serif" font-size="13" lengthAdjust="spacing" textLength="206" x="248" y="223.895">Подтверждение регистрации</text><polygon fill="#181818" points="538,254.0938,548,258.0938,538,262.0938,542,258.0938" style="stroke:#181818;stroke-width:1.0;"/><line style="stroke:#181818;stroke-width:1.0;" x1="231" x2="544" y1="258.0938" y2="258.0938"/><text fill="#000000" font-family="sans-serif" font-size="13" lengthAdjust="spacing" textLength="186" x="238" y="253.0278">Запрос на создание заказа</text><polygon fill="#181818" points="754,283.2266,764,287.2266,754,291.2266,758,287.2266" style="stroke:#181818;stroke-width:1.0;"/><line style="stroke:#181818;stroke-width:1.0;" x1="560" x2="760" y1="287.2266" y2="287.2266"/><text fill="#000000" font-family="sans-serif" font-size="13" lengthAdjust="spacing" textLength="126" x="567" y="282.1606">INSERT INTO Orders</text><polygon fill="#181818" points="571,312.3594,561,316.3594,571,320.3594,567,316.3594" style="stroke:#181818;stroke-width:1.0;"/><line style="stroke:#181818;stroke-width:1.0;stroke-dasharray:2.0,2.0;" x1="565" x2="770" y1="316.3594" y2="316.3594"/><text fill="#000000" font-family="sans-serif" font-size="13" lengthAdjust="spacing" textLength="114" x="577" y="311.2935">ID нового заказа</text><polygon fill="#181818" points="754,341.4922,764,345.4922,754,349.4922,758,345.4922" style="stroke:#181818;stroke-width:1.0;"/><line style="stroke:#181818;stroke-width:1.0;" x1="560" x2="760" y1="345.4922" y2="345.4922"/><text fill="#000000" font-family="sans-serif" font-size="13" lengthAdjust="spacing" textLength="173" x="567" y="340.4263">INSERT INTO OrderServices</text><polygon fill="#181818" points="571,370.625,561,374.625,571,378.625,567,374.625" style="stroke:#181818;stroke-width:1.0;"/><line style="stroke:#181818;stroke-width:1.0;stroke-dasharray:2.0,2.0;" x1="565" x2="770" y1="374.625" y2="374.625"/><text fill="#000000" font-family="sans-serif" font-size="13" lengthAdjust="spacing" textLength="114" x="577" y="369.5591">Подтверждение</text><polygon fill="#181818" points="242,399.7578,232,403.7578,242,407.7578,238,403.7578" style="stroke:#181818;stroke-width:1.0;"/><line style="stroke:#181818;stroke-width:1.0;stroke-dasharray:2.0,2.0;" x1="236" x2="554" y1="403.7578" y2="403.7578"/><text fill="#000000" font-family="sans-serif" font-size="13" lengthAdjust="spacing" textLength="232" x="248" y="398.6919">Подтверждение создания заказа</text><polygon fill="#181818" points="51,428.8906,41,432.8906,51,436.8906,47,432.8906" style="stroke:#181818;stroke-width:1.0;"/><line style="stroke:#181818;stroke-width:1.0;stroke-dasharray:2.0,2.0;" x1="45" x2="225" y1="432.8906" y2="432.8906"/><text fill="#000000" font-family="sans-serif" font-size="13" lengthAdjust="spacing" textLength="135" x="57" y="427.8247">Выдает квитанцию</text><!--MD5=[a90aa78aaa2f74bb93779ed512e68ec4]
@startuml
actor Пациент
participant "Лаборант" as Lab
participant "Система" as Sys
database "База данных" as DB

Пациент -> Lab: Передает биоматериал
activate Lab

Lab -> Sys: Запрос на создание записи о биоматериале
activate Sys

Sys -> DB: INSERT INTO Biomaterials
activate DB
DB - -> Sys: Подтверждение создания
deactivate DB

Sys - -> Lab: Подтверждение регистрации
deactivate Sys

Lab -> Sys: Запрос на создание заказа
activate Sys

Sys -> DB: INSERT INTO Orders
activate DB
DB - -> Sys: ID нового заказа
deactivate DB

Sys -> DB: INSERT INTO OrderServices
activate DB
DB - -> Sys: Подтверждение
deactivate DB

Sys - -> Lab: Подтверждение создания заказа
deactivate Sys

Lab - -> Пациент: Выдает квитанцию
deactivate Lab
@enduml

PlantUML version 1.2022.7(Mon Aug 22 17:01:30 UTC 2022)
(GPL source distribution)
Java Runtime: OpenJDK Runtime Environment
JVM: OpenJDK 64-Bit Server VM
Default Encoding: UTF-8
Language: en
Country: null
--></g></svg>