<?xml version="1.0" encoding="UTF-8" standalone="no"?><svg xmlns="http://www.w3.org/2000/svg" xmlns:xlink="http://www.w3.org/1999/xlink" contentStyleType="text/css" height="483px" preserveAspectRatio="none" style="width:676px;height:483px;background:#FFFFFF;" version="1.1" viewBox="0 0 676 483" width="676px" zoomAndPan="magnify"><defs/><g><!--MD5=[9897c2ba6752374f2e4663b70c97f546]
cluster Клиентское приложение--><g id="cluster_Клиентское приложение"><polygon fill="none" points="39,16,49,6,484,6,484,98,474,108,39,108,39,16" style="stroke:#181818;stroke-width:1.0;"/><line style="stroke:#181818;stroke-width:1.0;" x1="474" x2="484" y1="16" y2="6"/><line style="stroke:#181818;stroke-width:1.0;" x1="39" x2="474" y1="16" y2="16"/><line style="stroke:#181818;stroke-width:1.0;" x1="474" x2="474" y1="16" y2="108"/><text fill="#000000" font-family="sans-serif" font-size="14" font-weight="bold" lengthAdjust="spacing" textLength="207" x="154" y="31.9951">Клиентское приложение</text></g><!--MD5=[237e667d60b6239ab9e28bd19b684d3f]
cluster Сервер приложений--><g id="cluster_Сервер приложений"><polygon fill="none" points="16,142,26,132,261,132,261,456,251,466,16,466,16,142" style="stroke:#181818;stroke-width:1.0;"/><line style="stroke:#181818;stroke-width:1.0;" x1="251" x2="261" y1="142" y2="132"/><line style="stroke:#181818;stroke-width:1.0;" x1="16" x2="251" y1="142" y2="142"/><line style="stroke:#181818;stroke-width:1.0;" x1="251" x2="251" y1="142" y2="466"/><text fill="#000000" font-family="sans-serif" font-size="14" font-weight="bold" lengthAdjust="spacing" textLength="169" x="50" y="157.9951">Сервер приложений</text></g><!--MD5=[478f426d722e5daf502d521708b2f6ff]
cluster База данных--><g id="cluster_База данных"><polygon fill="none" points="285,374,295,364,659,364,659,456,649,466,285,466,285,374" style="stroke:#181818;stroke-width:1.0;"/><line style="stroke:#181818;stroke-width:1.0;" x1="649" x2="659" y1="374" y2="364"/><line style="stroke:#181818;stroke-width:1.0;" x1="285" x2="649" y1="374" y2="374"/><line style="stroke:#181818;stroke-width:1.0;" x1="649" x2="649" y1="374" y2="466"/><text fill="#000000" font-family="sans-serif" font-size="14" font-weight="bold" lengthAdjust="spacing" textLength="104" x="416" y="389.9951">База данных</text></g><!--MD5=[c92432ea3d28a013dcef14eab14af41f]
cluster Внешние системы--><g id="cluster_Внешние системы"><path d="M293.3692,253.738 C302.4094,241.9185 312.2956,241.9527 320.6661,254.4887 C324.5212,243.8522 334.8117,239.7164 342.7613,250.2065 C349.8943,240.0341 358.6381,241.9952 363.8482,252.1966 C370.8417,239.1092 382.1521,239.0542 389.2705,252.075 C394.8251,241.6526 401.3309,240.0822 410.2293,248.3191 C419.4254,237.9336 430.8801,236.1608 437.2546,251.3059 C443.9124,240.1488 452.6503,239.5682 460.3926,250.1516 C465.2759,240.8173 475.343,238.4635 481.1971,249.1425 C487.149,236.5277 499.2831,236.9456 506.0425,248.3057 C512.6101,236.2925 524.435,237.2085 530.5128,248.8132 C537.33,239.652 546.2186,239.1779 552.0153,249.9159 C561.2931,237.9519 569.8359,239.1691 577.2093,251.8618 C584.2393,239.7766 594.6903,243.1546 600.1929,253.4317 C607.8053,242.5558 618.4887,244.1554 624.5271,255.1806 C646.7655,263.5879 652.1491,275.7348 635.6369,294.9636 C649.8458,314.625 647.4358,330.7977 621.148,336.2457 C614.1005,345.3096 605.5272,343.4241 601.4901,333.1807 C596.2576,344.3802 583.8877,348.8033 575.6367,336.5012 C570.6247,346.4016 560.3396,346.3853 554.053,338.0061 C545.2692,350.7304 535.1072,349.043 528.0671,336.2316 C521.4527,349.1272 512.9797,346.9806 505.1106,337.5199 C499.6862,348.5987 490.5931,348.9199 483.8202,338.8793 C475.7588,351.6658 467.5285,352.0618 457.3783,341.2165 C449.0416,349.1158 441.1658,350.6367 435.5453,338.2877 C431.1839,349.1805 420.9535,351.6797 413.924,340.9564 C403.3975,351.5541 394.0278,351.1543 387.9329,336.4111 C382.9865,347.7611 373.5729,346.7934 367.0075,338.1015 C358.1236,349.0321 349.1818,349.3017 343.0348,335.4537 C335.2865,346.639 327.4677,345.524 319.6075,335.5776 C310.5592,345.5092 302.145,344.9487 294.6382,333.7556 C273.1712,324.2165 272.0832,305.3834 290.8645,292.1903 C271.4044,277.5677 273.0291,265.7681 293.3692,253.738 " fill="none" style="stroke:#181818;stroke-width:1.0;"/><text fill="#000000" font-family="sans-serif" font-size="14" font-weight="bold" lengthAdjust="spacing" textLength="150" x="382" y="268.9951">Внешние системы</text></g><!--MD5=[72d051d753fb729cd7875fe3a75ed276]
entity Веб-интерфейс--><g id="elem_Веб-интерфейс"><rect fill="#F1F1F1" height="46.2969" rx="2.5" ry="2.5" style="stroke:#181818;stroke-width:0.5;" width="157" x="310.5" y="46"/><rect fill="#F1F1F1" height="10" style="stroke:#181818;stroke-width:0.5;" width="15" x="447.5" y="51"/><rect fill="#F1F1F1" height="2" style="stroke:#181818;stroke-width:0.5;" width="4" x="445.5" y="53"/><rect fill="#F1F1F1" height="2" style="stroke:#181818;stroke-width:0.5;" width="4" x="445.5" y="57"/><text fill="#000000" font-family="sans-serif" font-size="14" lengthAdjust="spacing" textLength="117" x="325.5" y="78.9951">Веб-интерфейс</text></g><!--MD5=[a6140c42f92d6942662665689d45fdf3]
entity Мобильное приложение--><g id="elem_Мобильное приложение"><rect fill="#F1F1F1" height="46.2969" rx="2.5" ry="2.5" style="stroke:#181818;stroke-width:0.5;" width="221" x="54.5" y="46"/><rect fill="#F1F1F1" height="10" style="stroke:#181818;stroke-width:0.5;" width="15" x="255.5" y="51"/><rect fill="#F1F1F1" height="2" style="stroke:#181818;stroke-width:0.5;" width="4" x="253.5" y="53"/><rect fill="#F1F1F1" height="2" style="stroke:#181818;stroke-width:0.5;" width="4" x="253.5" y="57"/><text fill="#000000" font-family="sans-serif" font-size="14" lengthAdjust="spacing" textLength="181" x="69.5" y="78.9951">Мобильное приложение</text></g><!--MD5=[c8b43072b4dedbaf685acf6cbd84e23e]
entity API сервис--><g id="elem_API сервис"><rect fill="#F1F1F1" height="46.2969" rx="2.5" ry="2.5" style="stroke:#181818;stroke-width:0.5;" width="116" x="129" y="172"/><rect fill="#F1F1F1" height="10" style="stroke:#181818;stroke-width:0.5;" width="15" x="225" y="177"/><rect fill="#F1F1F1" height="2" style="stroke:#181818;stroke-width:0.5;" width="4" x="223" y="179"/><rect fill="#F1F1F1" height="2" style="stroke:#181818;stroke-width:0.5;" width="4" x="223" y="183"/><text fill="#000000" font-family="sans-serif" font-size="14" lengthAdjust="spacing" textLength="76" x="144" y="204.9951">API сервис</text></g><!--MD5=[4db1db6f3923837dc8f442c655d58997]
entity Бизнес-логика--><g id="elem_Бизнес-логика"><rect fill="#F1F1F1" height="46.2969" rx="2.5" ry="2.5" style="stroke:#181818;stroke-width:0.5;" width="148" x="97" y="278"/><rect fill="#F1F1F1" height="10" style="stroke:#181818;stroke-width:0.5;" width="15" x="225" y="283"/><rect fill="#F1F1F1" height="2" style="stroke:#181818;stroke-width:0.5;" width="4" x="223" y="285"/><rect fill="#F1F1F1" height="2" style="stroke:#181818;stroke-width:0.5;" width="4" x="223" y="289"/><text fill="#000000" font-family="sans-serif" font-size="14" lengthAdjust="spacing" textLength="108" x="112" y="310.9951">Бизнес-логика</text></g><!--MD5=[bf01568ec1b1973bc5372c0bd55658d4]
entity Аутентификация--><g id="elem_Аутентификация"><rect fill="#F1F1F1" height="46.2969" rx="2.5" ry="2.5" style="stroke:#181818;stroke-width:0.5;" width="166" x="79" y="404"/><rect fill="#F1F1F1" height="10" style="stroke:#181818;stroke-width:0.5;" width="15" x="225" y="409"/><rect fill="#F1F1F1" height="2" style="stroke:#181818;stroke-width:0.5;" width="4" x="223" y="411"/><rect fill="#F1F1F1" height="2" style="stroke:#181818;stroke-width:0.5;" width="4" x="223" y="415"/><text fill="#000000" font-family="sans-serif" font-size="14" lengthAdjust="spacing" textLength="126" x="94" y="436.9951">Аутентификация</text></g><!--MD5=[9941b5192b8aacefba4b577f5db6216b]
entity Таблицы--><g id="elem_Таблицы"><rect fill="#F1F1F1" height="46.2969" rx="2.5" ry="2.5" style="stroke:#181818;stroke-width:0.5;" width="105" x="537.5" y="404"/><rect fill="#F1F1F1" height="10" style="stroke:#181818;stroke-width:0.5;" width="15" x="622.5" y="409"/><rect fill="#F1F1F1" height="2" style="stroke:#181818;stroke-width:0.5;" width="4" x="620.5" y="411"/><rect fill="#F1F1F1" height="2" style="stroke:#181818;stroke-width:0.5;" width="4" x="620.5" y="415"/><text fill="#000000" font-family="sans-serif" font-size="14" lengthAdjust="spacing" textLength="65" x="552.5" y="436.9951">Таблицы</text></g><!--MD5=[8f0fb6a9c2bb9cb54eb41dde7b903272]
entity Хранимые процедуры--><g id="elem_Хранимые процедуры"><rect fill="#F1F1F1" height="46.2969" rx="2.5" ry="2.5" style="stroke:#181818;stroke-width:0.5;" width="201" x="301.5" y="404"/><rect fill="#F1F1F1" height="10" style="stroke:#181818;stroke-width:0.5;" width="15" x="482.5" y="409"/><rect fill="#F1F1F1" height="2" style="stroke:#181818;stroke-width:0.5;" width="4" x="480.5" y="411"/><rect fill="#F1F1F1" height="2" style="stroke:#181818;stroke-width:0.5;" width="4" x="480.5" y="415"/><text fill="#000000" font-family="sans-serif" font-size="14" lengthAdjust="spacing" textLength="161" x="316.5" y="436.9951">Хранимые процедуры</text></g><!--MD5=[d652a7fd562b5d7bdd39a091f5eb0552]
entity СМЭВ--><g id="elem_СМЭВ"><rect fill="#F1F1F1" height="46.2969" rx="2.5" ry="2.5" style="stroke:#181818;stroke-width:0.5;" width="82" x="531" y="278"/><rect fill="#F1F1F1" height="10" style="stroke:#181818;stroke-width:0.5;" width="15" x="593" y="283"/><rect fill="#F1F1F1" height="2" style="stroke:#181818;stroke-width:0.5;" width="4" x="591" y="285"/><rect fill="#F1F1F1" height="2" style="stroke:#181818;stroke-width:0.5;" width="4" x="591" y="289"/><text fill="#000000" font-family="sans-serif" font-size="14" lengthAdjust="spacing" textLength="42" x="546" y="310.9951">СМЭВ</text></g><!--MD5=[cc16dc921bb0af99bdcd7d2866b33a3b]
entity Платежные системы--><g id="elem_Платежные системы"><rect fill="#F1F1F1" height="46.2969" rx="2.5" ry="2.5" style="stroke:#181818;stroke-width:0.5;" width="195" x="300.5" y="278"/><rect fill="#F1F1F1" height="10" style="stroke:#181818;stroke-width:0.5;" width="15" x="475.5" y="283"/><rect fill="#F1F1F1" height="2" style="stroke:#181818;stroke-width:0.5;" width="4" x="473.5" y="285"/><rect fill="#F1F1F1" height="2" style="stroke:#181818;stroke-width:0.5;" width="4" x="473.5" y="289"/><text fill="#000000" font-family="sans-serif" font-size="14" lengthAdjust="spacing" textLength="155" x="315.5" y="310.9951">Платежные системы</text></g><!--MD5=[403bdf17294ce280c6881e990be049d8]
link Веб-интерфейс to API сервис--><g id="link_Веб-интерфейс_API сервис"><path d="M352.89,92.17 C317.66,113.79 264.18,146.62 227.53,169.12 " fill="none" id="Веб-интерфейс-to-API сервис" style="stroke:#181818;stroke-width:1.0;"/><polygon fill="#181818" points="223.14,171.81,232.9025,170.5089,227.4007,169.1935,228.7161,163.6917,223.14,171.81" style="stroke:#181818;stroke-width:1.0;"/></g><!--MD5=[70c4101557073f358db5f91d0de6e45f]
link Мобильное приложение to API сервис--><g id="link_Мобильное приложение_API сервис"><path d="M168.93,92.17 C172.62,112.93 178.14,144.04 182.1,166.4 " fill="none" id="Мобильное приложение-to-API сервис" style="stroke:#181818;stroke-width:1.0;"/><polygon fill="#181818" points="183.03,171.61,185.4019,162.051,182.1594,166.6864,177.5241,163.4439,183.03,171.61" style="stroke:#181818;stroke-width:1.0;"/></g><!--MD5=[bae2b88df3b6b1e956e76283b3542830]
link API сервис to Бизнес-логика--><g id="link_API сервис_Бизнес-логика"><path d="M183.61,218.06 C181.15,234.05 177.8,255.78 175.18,272.84 " fill="none" id="API сервис-to-Бизнес-логика" style="stroke:#181818;stroke-width:1.0;"/><polygon fill="#181818" points="174.39,277.98,179.7066,269.6894,175.1471,273.0376,171.7988,268.4781,174.39,277.98" style="stroke:#181818;stroke-width:1.0;"/></g><!--MD5=[b21b11f10540eb122ad8276bec67ea09]
link Бизнес-логика to Аутентификация--><g id="link_Бизнес-логика_Аутентификация"><path d="M169.39,324.17 C167.88,344.93 165.63,376.04 164,398.4 " fill="none" id="Бизнес-логика-to-Аутентификация" style="stroke:#181818;stroke-width:1.0;"/><polygon fill="#181818" points="163.63,403.61,168.2628,394.9188,163.9873,398.6228,160.2833,394.3472,163.63,403.61" style="stroke:#181818;stroke-width:1.0;"/></g><!--MD5=[909a139c962511687e1350f0e77a35c2]
link Бизнес-логика to Таблицы--><g id="link_Бизнес-логика_Таблицы"><path d="M215.34,324.1 C235.99,333.28 261.2,342.96 285,348 C310.56,353.42 496.04,345.59 520,356 C541.22,365.21 559.47,384.09 572.02,399.92 " fill="none" id="Бизнес-логика-to-Таблицы" style="stroke:#181818;stroke-width:1.0;"/><polygon fill="#181818" points="575.08,403.87,572.7264,394.3065,572.0162,399.9186,566.4041,399.2085,575.08,403.87" style="stroke:#181818;stroke-width:1.0;"/></g><!--MD5=[3a08803fa289737194af047dfdd2bb4c]
link Бизнес-логика to Хранимые процедуры--><g id="link_Бизнес-логика_Хранимые процедуры"><path d="M212.03,324.03 C252.56,345.78 314.42,378.99 356.45,401.55 " fill="none" id="Бизнес-логика-to-Хранимые процедуры" style="stroke:#181818;stroke-width:1.0;"/><polygon fill="#181818" points="360.96,403.97,354.9051,396.2022,356.5494,401.6148,351.1368,403.2592,360.96,403.97" style="stroke:#181818;stroke-width:1.0;"/></g><!--MD5=[cf7ff88e8d04a7b349f21b3c1375f1c9]
link API сервис to СМЭВ--><g id="link_API сервис_СМЭВ"><path d="M245.09,198.1 C325.95,201.83 467.6,211.57 513,235 C530.06,243.8 544.62,259.68 555,273.54 " fill="none" id="API сервис-to-СМЭВ" style="stroke:#181818;stroke-width:1.0;"/><polygon fill="#181818" points="558.09,277.77,556.0111,268.143,555.1406,273.7325,549.5512,272.862,558.09,277.77" style="stroke:#181818;stroke-width:1.0;"/></g><!--MD5=[0925a9943857acbb91c4e4d1540a9b82]
link API сервис to Платежные системы--><g id="link_API сервис_Платежные системы"><path d="M231.75,218.06 C266.02,234.95 313.26,258.23 348.63,275.66 " fill="none" id="API сервис-to-Платежные системы" style="stroke:#181818;stroke-width:1.0;"/><polygon fill="#181818" points="353.32,277.98,347.0203,270.4095,348.8365,275.7668,343.4791,277.5831,353.32,277.98" style="stroke:#181818;stroke-width:1.0;"/></g><!--MD5=[91868afe037544baa441af50b51a1d53]
@startuml
node "Клиентское приложение" {
  [Веб-интерфейс]
  [Мобильное приложение]
}

node "Сервер приложений" {
  [API сервис]
  [Бизнес-логика]
  [Аутентификация]
}

node "База данных" {
  [Таблицы]
  [Хранимые процедуры]
}

[Веб-интерфейс] - -> [API сервис]
[Мобильное приложение] - -> [API сервис]
[API сервис] - -> [Бизнес-логика]
[Бизнес-логика] - -> [Аутентификация]
[Бизнес-логика] - -> [Таблицы]
[Бизнес-логика] - -> [Хранимые процедуры]

cloud "Внешние системы" {
  [СМЭВ]
  [Платежные системы]
}

[API сервис] - -> [СМЭВ]
[API сервис] - -> [Платежные системы]
@enduml

PlantUML version 1.2022.7(Mon Aug 22 17:01:30 UTC 2022)
(GPL source distribution)
Java Runtime: OpenJDK Runtime Environment
JVM: OpenJDK 64-Bit Server VM
Default Encoding: UTF-8
Language: en
Country: null
--></g></svg>